<svg version="1.1" id="Layer_1" xmlns="http://www.w3.org/2000/svg" xmlns:xlink="http://www.w3.org/1999/xlink" x="0px" y="0px"
	 width="16" height="16" viewBox="0 0 258 256" enable-background="new 0 0 258 256" xml:space="preserve">
<path fill="none" stroke="none" 
	d="
M77.000000,257.000000 
	C51.739792,257.000000 26.479582,257.000000 1.000000,257.000000 
	C1.000000,231.979538 1.000000,206.958420 1.258832,181.144974 
	C2.454661,181.854019 3.423524,183.336594 4.323343,184.859955 
	C9.222938,193.154755 15.862318,199.265259 25.411903,201.752426 
	C43.750214,206.528580 63.010761,197.195648 68.060951,177.683075 
	C70.364922,168.781174 69.773468,159.895157 65.382774,152.482376 
	C68.598953,149.174179 71.460075,146.231186 74.673416,142.925888 
	C75.607185,143.971222 76.649261,145.255005 77.810814,146.419632 
	C87.334274,155.968185 96.834686,165.540955 106.484138,174.960861 
	C107.527954,175.979858 110.276497,176.979874 110.872261,176.451874 
	C114.909477,172.873795 118.580399,168.882416 122.400551,164.993256 
	C121.182755,163.676743 120.422775,162.796021 119.601837,161.976364 
	C102.284355,144.685989 84.963959,127.398506 67.631065,110.123589 
	C65.837387,108.335907 64.601219,106.987816 65.866119,103.813454 
	C67.619804,99.412415 68.410347,94.519920 68.951691,89.762566 
	C71.026711,71.527184 49.767757,52.848564 31.711393,55.680115 
	C18.966635,57.678715 9.818089,63.398815 3.252797,74.084656 
	C2.762251,74.883080 1.762851,75.368874 1.000001,76.000000 
	C1.000000,51.072166 1.000000,26.144329 1.000000,1.000000 
	C26.353817,1.000000 51.708248,1.000000 77.762062,1.321549 
	C77.238312,2.432882 76.086868,3.375447 74.780724,3.988304 
	C64.229309,8.939130 57.891422,16.721823 55.514606,28.517956 
	C52.342690,44.260189 61.319736,61.496059 76.904106,67.059288 
	C86.869797,70.616776 96.787910,70.381981 104.256248,66.130081 
	C108.343689,69.318909 111.803391,72.018005 114.230209,73.911293 
	C105.939003,82.596977 98.016602,91.084312 89.885353,99.366608 
	C79.821091,109.617813 79.873444,109.419502 89.841003,119.575928 
	C92.923485,122.716805 94.712830,122.212296 97.451080,119.346451 
	C104.351486,112.124527 111.527328,105.165833 118.590195,98.099052 
	C129.637299,87.045822 140.682266,75.990440 150.353729,66.311447 
	C157.998474,67.345558 164.180313,68.461159 170.411667,68.967903 
	C184.395004,70.105049 199.115448,56.319698 202.084122,43.464050 
	C206.649902,23.692341 196.425369,12.037044 182.763702,3.277562 
	C181.529678,2.486336 180.255524,1.757707 179.000000,1.000001 
	C205.594467,1.000000 232.188919,1.000000 259.000000,1.000000 
	C259.000000,28.020508 259.000000,55.041595 258.683319,82.823898 
	C257.587280,81.833206 257.014008,79.948730 255.988785,78.354973 
	C253.232269,74.069778 250.816544,69.383110 247.297333,65.809212 
	C240.240387,58.642616 231.667694,55.288086 221.146179,55.767509 
	C211.155991,56.222713 202.721115,59.965183 196.776611,67.034676 
	C188.729141,76.605103 184.597458,88.700584 190.362991,100.560783 
	C193.724136,107.474983 189.887878,109.254585 186.701889,112.802513 
	C184.355743,115.415199 182.713486,115.377693 180.264069,112.838745 
	C172.750580,105.050545 165.057541,97.432907 157.331741,89.853516 
	C154.358643,86.936745 150.987015,81.993668 148.018143,82.150864 
	C144.674088,82.327934 141.667679,87.324127 138.350937,90.023300 
	C135.180603,92.603333 135.718170,94.502304 138.465103,97.213356 
	C155.657623,114.181297 172.685638,131.315948 189.759277,148.404251 
	C190.904053,149.550034 191.976166,150.768417 193.017685,151.884079 
	C188.128510,160.270111 187.406204,169.142883 189.995392,177.749771 
	C194.099579,191.392838 203.159317,199.549454 217.849182,202.317673 
	C235.283936,205.603149 250.848953,194.465179 256.098938,179.349930 
	C256.652435,177.756332 258.013580,176.443237 259.000000,175.000000 
	C259.000000,202.258392 259.000000,229.516785 259.000000,257.000000 
	C233.312881,257.000000 207.625092,257.000000 181.275391,256.664795 
	C185.429550,252.733841 190.803497,249.680664 194.941986,245.425827 
	C202.817856,237.328522 205.166000,226.668030 202.551376,216.246552 
	C197.578201,196.424240 177.634949,183.748062 156.794708,191.137650 
	C150.892059,193.230606 148.609360,190.983292 145.243240,187.745926 
	C142.701462,185.301346 142.774292,183.734726 145.287323,181.308289 
	C153.309311,173.562607 161.109726,165.587494 168.997223,157.702484 
	C178.158234,148.544418 177.994339,148.701782 168.950119,139.201691 
	C165.605850,135.688843 163.411331,135.774445 160.149277,139.071732 
	C142.705978,156.703552 125.142960,174.217316 107.529732,191.679489 
	C106.683220,192.518723 104.446030,193.231552 103.741722,192.738541 
	C97.403976,188.302231 90.277794,188.979553 83.299606,189.470184 
	C69.441856,190.444519 55.306770,206.214783 54.952084,220.487427 
	C54.554817,236.473511 60.996685,248.219345 75.759804,255.050415 
	C76.347969,255.322571 76.594360,256.333374 77.000000,257.000000 
z"/>
<path fill="#6EA847" opacity="1.000000" stroke="none" 
	d="
M77.468651,257.000000 
	C76.594360,256.333374 76.347969,255.322571 75.759804,255.050415 
	C60.996685,248.219345 54.554817,236.473511 54.952084,220.487427 
	C55.306770,206.214783 69.441856,190.444519 83.299606,189.470184 
	C90.277794,188.979553 97.403976,188.302231 103.741722,192.738541 
	C104.446030,193.231552 106.683220,192.518723 107.529732,191.679489 
	C125.142960,174.217316 142.705978,156.703552 160.149277,139.071732 
	C163.411331,135.774445 165.605850,135.688843 168.950119,139.201691 
	C177.994339,148.701782 178.158234,148.544418 168.997223,157.702484 
	C161.109726,165.587494 153.309311,173.562607 145.287323,181.308289 
	C142.774292,183.734726 142.701462,185.301346 145.243240,187.745926 
	C148.609360,190.983292 150.892059,193.230606 156.794708,191.137650 
	C177.634949,183.748062 197.578201,196.424240 202.551376,216.246552 
	C205.166000,226.668030 202.817856,237.328522 194.941986,245.425827 
	C190.803497,249.680664 185.429550,252.733841 180.806732,256.664795 
	C172.979095,257.000000 164.958191,257.000000 156.675842,256.671570 
	C155.626175,255.776993 154.904800,255.066437 154.039856,254.665955 
	C136.454590,246.523880 128.638641,226.346283 137.114456,208.340637 
	C137.575165,207.361923 137.643936,205.691696 137.109604,204.831055 
	C132.417679,197.273575 129.664780,197.002823 123.449219,203.260956 
	C122.291420,204.426682 121.176163,205.634659 120.065468,206.797821 
	C125.329903,217.216187 125.864326,227.744354 120.976044,238.094162 
	C117.548584,245.351013 112.191879,251.103745 104.546028,254.385818 
	C103.513550,254.829025 102.839844,256.108002 102.000000,257.000000 
	C93.979103,257.000000 85.958199,257.000000 77.468651,257.000000 
z"/>
<path fill="#6EA847" opacity="1.000000" stroke="none" 
	d="
M178.531433,1.000001 
	C180.255524,1.757707 181.529678,2.486336 182.763702,3.277562 
	C196.425369,12.037044 206.649902,23.692341 202.084122,43.464050 
	C199.115448,56.319698 184.395004,70.105049 170.411667,68.967903 
	C164.180313,68.461159 157.998474,67.345558 150.353729,66.311447 
	C140.682266,75.990440 129.637299,87.045822 118.590195,98.099052 
	C111.527328,105.165833 104.351486,112.124527 97.451080,119.346451 
	C94.712830,122.212296 92.923485,122.716805 89.841003,119.575928 
	C79.873444,109.419502 79.821091,109.617813 89.885353,99.366608 
	C98.016602,91.084312 105.939003,82.596977 114.230209,73.911293 
	C111.803391,72.018005 108.343689,69.318909 104.256248,66.130081 
	C96.787910,70.381981 86.869797,70.616776 76.904106,67.059288 
	C61.319736,61.496059 52.342690,44.260189 55.514606,28.517956 
	C57.891422,16.721823 64.229309,8.939130 74.780724,3.988304 
	C76.086868,3.375447 77.238312,2.432882 78.230721,1.321549 
	C85.354256,1.000000 92.708504,1.000000 100.258705,1.297874 
	C102.457085,2.975896 104.381676,4.488941 106.474510,5.714753 
	C120.683151,14.037019 127.526688,27.745541 122.867607,42.526012 
	C120.292870,50.694099 121.332085,55.977276 128.163712,60.481705 
	C128.417572,60.649090 128.771286,60.665070 129.210556,60.788822 
	C132.156448,57.546337 135.134491,54.268475 138.016342,51.096485 
	C136.891037,48.949043 135.557800,47.312790 135.141983,45.469574 
	C131.376846,28.779251 135.432632,13.222100 153.026276,4.382900 
	C154.536240,3.624276 155.683990,2.144683 157.000000,1.000002 
	C164.020950,1.000000 171.041901,1.000000 178.531433,1.000001 
z"/>
<path fill="#97CA40" opacity="1.000000" stroke="none" 
	d="
M259.000000,174.536835 
	C258.013580,176.443237 256.652435,177.756332 256.098938,179.349930 
	C250.848953,194.465179 235.283936,205.603149 217.849182,202.317673 
	C203.159317,199.549454 194.099579,191.392838 189.995392,177.749771 
	C187.406204,169.142883 188.128510,160.270111 193.017685,151.884079 
	C191.976166,150.768417 190.904053,149.550034 189.759277,148.404251 
	C172.685638,131.315948 155.657623,114.181297 138.465103,97.213356 
	C135.718170,94.502304 135.180603,92.603333 138.350937,90.023300 
	C141.667679,87.324127 144.674088,82.327934 148.018143,82.150864 
	C150.987015,81.993668 154.358643,86.936745 157.331741,89.853516 
	C165.057541,97.432907 172.750580,105.050545 180.264069,112.838745 
	C182.713486,115.377693 184.355743,115.415199 186.701889,112.802513 
	C189.887878,109.254585 193.724136,107.474983 190.362991,100.560783 
	C184.597458,88.700584 188.729141,76.605103 196.776611,67.034676 
	C202.721115,59.965183 211.155991,56.222713 221.146179,55.767509 
	C231.667694,55.288086 240.240387,58.642616 247.297333,65.809212 
	C250.816544,69.383110 253.232269,74.069778 255.988785,78.354973 
	C257.014008,79.948730 257.587280,81.833206 258.683319,83.292557 
	C259.000000,86.361290 259.000000,89.722572 258.639404,93.304764 
	C257.886993,94.036606 257.377777,94.494926 257.121460,95.066643 
	C254.608841,100.670609 253.172150,107.123940 249.455750,111.750145 
	C239.594269,124.025803 224.903488,127.193642 211.638550,122.016006 
	C207.085999,120.239021 204.140549,120.116280 201.271561,124.205673 
	C199.825211,126.267265 196.756744,127.580246 198.501343,130.844421 
	C200.844849,135.229126 206.348633,138.176529 209.825928,137.030106 
	C217.133820,134.620804 224.442291,133.754044 232.062683,135.867081 
	C244.963989,139.444458 252.901810,147.874084 257.103027,160.290878 
	C257.340912,160.994034 258.349884,161.436310 259.000000,162.000000 
	C259.000000,166.024551 259.000000,170.049088 259.000000,174.536835 
z"/>
<path fill="#97CA40" opacity="1.000000" stroke="none" 
	d="
M1.000001,76.468651 
	C1.762851,75.368874 2.762251,74.883080 3.252797,74.084656 
	C9.818089,63.398815 18.966635,57.678715 31.711393,55.680115 
	C49.767757,52.848564 71.026711,71.527184 68.951691,89.762566 
	C68.410347,94.519920 67.619804,99.412415 65.866119,103.813454 
	C64.601219,106.987816 65.837387,108.335907 67.631065,110.123589 
	C84.963959,127.398506 102.284355,144.685989 119.601837,161.976364 
	C120.422775,162.796021 121.182755,163.676743 122.400551,164.993256 
	C118.580399,168.882416 114.909477,172.873795 110.872261,176.451874 
	C110.276497,176.979874 107.527954,175.979858 106.484138,174.960861 
	C96.834686,165.540955 87.334274,155.968185 77.810814,146.419632 
	C76.649261,145.255005 75.607185,143.971222 74.673416,142.925888 
	C71.460075,146.231186 68.598953,149.174179 65.382774,152.482376 
	C69.773468,159.895157 70.364922,168.781174 68.060951,177.683075 
	C63.010761,197.195648 43.750214,206.528580 25.411903,201.752426 
	C15.862318,199.265259 9.222938,193.154755 4.323343,184.859955 
	C3.423524,183.336594 2.454661,181.854019 1.258832,180.676315 
	C1.000000,172.979095 1.000000,164.958191 1.261221,156.792114 
	C2.328698,155.445267 3.346727,154.334595 3.908247,153.027786 
	C9.166431,140.790405 26.738659,130.430359 42.613773,135.697922 
	C45.889313,136.784790 50.069466,138.344742 52.814552,137.214294 
	C60.224598,134.162781 60.624279,129.392395 55.154797,123.722816 
	C52.735054,121.214554 51.051468,120.129120 46.973354,121.774498 
	C31.504408,128.015686 13.266406,122.143845 4.588721,106.354378 
	C3.698566,104.734695 2.210578,103.443581 0.999999,102.000000 
	C1.000000,93.645767 1.000000,85.291534 1.000001,76.468651 
z"/>
<path fill="#000000" opacity="1.000000" stroke="none" 
	d="
M259.000000,161.531342 
	C258.349884,161.436310 257.340912,160.994034 257.103027,160.290878 
	C252.901810,147.874084 244.963989,139.444458 232.062683,135.867081 
	C224.442291,133.754044 217.133820,134.620804 209.825928,137.030106 
	C206.348633,138.176529 200.844849,135.229126 198.501343,130.844421 
	C196.756744,127.580246 199.825211,126.267265 201.271561,124.205673 
	C204.140549,120.116280 207.085999,120.239021 211.638550,122.016006 
	C224.903488,127.193642 239.594269,124.025803 249.455750,111.750145 
	C253.172150,107.123940 254.608841,100.670609 257.121460,95.066643 
	C257.377777,94.494926 257.886993,94.036606 258.639404,93.762833 
	C259.000000,116.354225 259.000000,138.708450 259.000000,161.531342 
z"/>
<path fill="#000000" opacity="1.000000" stroke="none" 
	d="
M156.531342,1.000002 
	C155.683990,2.144683 154.536240,3.624276 153.026276,4.382900 
	C135.432632,13.222100 131.376846,28.779251 135.141983,45.469574 
	C135.557800,47.312790 136.891037,48.949043 138.016342,51.096485 
	C135.134491,54.268475 132.156448,57.546337 129.210556,60.788822 
	C128.771286,60.665070 128.417572,60.649090 128.163712,60.481705 
	C121.332085,55.977276 120.292870,50.694099 122.867607,42.526012 
	C127.526688,27.745541 120.683151,14.037019 106.474510,5.714753 
	C104.381676,4.488941 102.457085,2.975896 100.727325,1.297874 
	C119.354225,1.000000 137.708450,1.000000 156.531342,1.000002 
z"/>
<path fill="#000000" opacity="1.000000" stroke="none" 
	d="
M0.999999,102.468658 
	C2.210578,103.443581 3.698566,104.734695 4.588721,106.354378 
	C13.266406,122.143845 31.504408,128.015686 46.973354,121.774498 
	C51.051468,120.129120 52.735054,121.214554 55.154797,123.722816 
	C60.624279,129.392395 60.224598,134.162781 52.814552,137.214294 
	C50.069466,138.344742 45.889313,136.784790 42.613773,135.697922 
	C26.738659,130.430359 9.166431,140.790405 3.908247,153.027786 
	C3.346727,154.334595 2.328698,155.445267 1.261221,156.323456 
	C1.000000,138.312439 1.000000,120.624878 0.999999,102.468658 
z"/>
<path fill="#000000" opacity="1.000000" stroke="none" 
	d="
M102.468658,257.000000 
	C102.839844,256.108002 103.513550,254.829025 104.546028,254.385818 
	C112.191879,251.103745 117.548584,245.351013 120.976044,238.094162 
	C125.864326,227.744354 125.329903,217.216187 120.065468,206.797821 
	C121.176163,205.634659 122.291420,204.426682 123.449219,203.260956 
	C129.664780,197.002823 132.417679,197.273575 137.109604,204.831055 
	C137.643936,205.691696 137.575165,207.361923 137.114456,208.340637 
	C128.638641,226.346283 136.454590,246.523880 154.039856,254.665955 
	C154.904800,255.066437 155.626175,255.776993 156.207199,256.671570 
	C138.312439,257.000000 120.624878,257.000000 102.468658,257.000000 
z"/>
</svg>