<svg version="1.1" id="Layer_1" xmlns="http://www.w3.org/2000/svg" xmlns:xlink="http://www.w3.org/1999/xlink" x="0px" y="0px"
	 width="100%" viewBox="0 0 1698 1698" enable-background="new 0 0 1698 1698" xml:space="preserve">
<path fill="#E84317" opacity="1.000000" stroke="none" 
	d="
M178.911041,949.454346 
	C179.236420,947.324646 179.504105,945.461853 179.587616,942.871338 
	C179.446564,941.100220 179.489716,940.056824 179.674561,938.628662 
	C179.926880,933.217041 180.037521,928.190247 180.469421,922.943848 
	C181.182785,921.332581 181.912506,919.941895 181.916763,918.548950 
	C181.991013,894.228088 182.014343,869.906799 181.890671,845.586365 
	C181.882919,844.061951 180.573975,842.544189 179.870392,841.023315 
	C179.840912,840.010132 179.811432,838.996887 179.883087,837.218872 
	C180.037857,835.685669 180.091522,834.917236 180.468292,833.932739 
	C181.182571,832.494507 181.908859,831.273560 181.913361,830.050049 
	C181.962341,816.746216 181.939209,803.441406 181.788940,790.138611 
	C181.776611,789.045776 180.689911,787.965027 180.097473,786.485352 
	C180.097565,784.769836 180.102615,783.447693 180.419861,781.920105 
	C182.322601,775.708374 183.306000,769.723694 180.100418,763.503662 
	C180.124039,762.090881 180.142105,761.063416 180.476013,759.834778 
	C182.397049,754.993225 183.346527,750.382812 180.155243,745.505493 
	C180.136230,741.415039 180.128677,737.780334 180.338409,734.032776 
	C180.414780,733.226135 180.273865,732.532288 180.133514,731.380066 
	C180.126144,723.323914 180.118240,715.726257 180.422287,707.919434 
	C182.410690,704.312744 183.180237,700.973389 180.104309,697.420349 
	C180.108521,690.685303 180.111115,684.411133 180.332306,678.026611 
	C180.405136,677.232483 180.259369,676.548645 180.114777,675.435486 
	C180.115051,672.714600 180.114182,670.422974 180.400635,667.958008 
	C180.496658,666.145142 180.305328,664.505615 180.124786,662.576965 
	C180.128265,661.902100 180.120972,661.516357 180.432861,660.912842 
	C181.152390,655.345093 181.681076,649.999512 181.857208,644.642273 
	C181.898041,643.400391 180.735764,642.118958 180.117432,640.404419 
	C180.110321,635.346802 180.112854,630.740479 180.419708,625.933777 
	C182.463593,622.961304 182.924576,620.281067 180.145752,617.553345 
	C180.137375,616.901001 180.139236,616.528198 180.464172,615.938599 
	C181.116623,615.167480 181.726852,614.616577 181.733353,614.058533 
	C181.834808,605.339233 181.946259,596.617493 181.782501,587.901367 
	C181.763184,586.873352 180.134796,585.875549 179.252304,584.863770 
	C179.239273,584.479614 179.226242,584.095459 179.594376,583.329346 
	C180.636963,581.423950 181.725220,579.940125 181.870865,578.368958 
	C182.172897,575.110657 182.082016,571.801819 181.958481,568.521057 
	C181.725479,562.334473 181.355133,556.153015 181.018127,549.635254 
	C180.638748,548.500244 180.283112,547.699463 179.927490,546.898621 
	C179.992905,545.893372 180.058334,544.888062 180.492416,543.454468 
	C181.532578,542.341919 182.204071,541.657593 182.893860,540.598938 
	C182.921967,539.474304 182.931778,538.723999 183.159424,537.641113 
	C183.116882,534.118835 182.856506,530.929077 182.596146,527.739380 
	C182.636932,526.458618 182.677704,525.177917 182.977600,523.261963 
	C183.409821,521.964294 183.582947,521.301758 183.756058,520.639282 
	C183.756058,520.639282 183.755249,520.296143 184.140030,520.020203 
	C185.013367,518.497681 185.501923,517.251038 186.002075,515.638794 
	C186.040222,514.544006 186.066772,513.814941 186.371552,512.960449 
	C186.420776,511.536621 186.191757,510.238190 185.962738,508.939728 
	C185.962738,508.939728 185.997513,508.501282 186.386414,508.231079 
	C189.096344,502.984467 192.023560,498.194092 193.619278,492.995056 
	C197.632629,479.919067 204.963058,468.535736 212.235641,457.344086 
	C218.763168,447.298981 225.677505,437.241608 236.085129,430.179810 
	C246.479507,423.126984 255.902664,414.638336 266.325775,407.633484 
	C276.875366,400.543671 288.130463,394.503998 299.072388,387.997314 
	C303.472931,385.380463 307.803131,382.638855 312.271088,380.143372 
	C318.786896,376.504028 325.447449,373.121765 331.926270,369.419830 
	C333.185150,368.700562 333.894745,367.020020 334.857727,365.782898 
	C335.678833,365.176697 336.499939,364.570526 337.826111,364.021851 
	C339.566681,363.875763 340.998444,364.007050 342.006866,363.415985 
	C350.807983,358.257568 359.557281,353.008820 368.241730,347.656616 
	C369.055176,347.155304 369.316772,345.758575 369.834595,344.777557 
	C373.354126,342.571167 376.873627,340.364777 380.938110,338.178406 
	C390.142395,335.752808 397.633423,331.306244 404.333832,324.924377 
	C405.097809,324.230042 405.578888,323.632446 406.261414,322.990051 
	C406.462830,322.945251 406.871002,322.883972 407.251892,322.893982 
	C409.738190,321.568359 411.843536,320.232758 414.146393,318.851105 
	C414.343872,318.805054 414.748444,318.776947 415.071228,318.744019 
	C415.890717,318.084442 416.387451,317.457764 417.121796,316.582764 
	C420.226715,314.816528 423.093994,313.298645 426.196594,311.970551 
	C427.055908,312.120850 427.798248,312.289185 428.286469,312.011230 
	C438.169220,306.384125 448.056946,300.763550 457.848267,294.980164 
	C459.452026,294.032867 460.605438,292.323212 461.978577,290.981232 
	C461.990143,290.996582 461.978394,290.964508 462.376343,290.976501 
	C464.801392,289.927338 466.828522,288.866211 469.072571,287.542236 
	C477.172882,282.490234 485.056244,277.701050 493.321930,272.905212 
	C498.041595,271.929871 502.274078,270.805481 504.245239,265.746033 
	C505.642792,265.013397 506.797394,264.497559 508.328247,263.970398 
	C509.351501,263.823730 510.080139,263.836304 510.633514,263.531158 
	C521.202454,257.703735 531.787964,251.903625 542.254333,245.896362 
	C543.500854,245.180954 544.074829,243.293793 544.960510,241.949783 
	C544.960510,241.949783 544.997559,241.984283 545.357056,241.964722 
	C550.344299,239.811081 555.041077,237.808884 559.550293,235.448517 
	C560.652649,234.871506 561.140869,233.121185 561.911438,231.910324 
	C561.911438,231.910324 561.927734,231.940750 562.328125,231.945145 
	C565.759216,230.219910 568.789917,228.490265 571.820679,226.760620 
	C572.621155,226.162033 573.421570,225.563431 574.911499,224.945801 
	C577.016846,223.908218 578.432800,222.889664 579.848755,221.871124 
	C579.848755,221.871140 579.886841,221.874100 580.256042,221.887756 
	C581.691772,221.216415 582.758301,220.531403 583.824829,219.846405 
	C583.824829,219.846390 583.845215,219.813324 584.212036,219.825684 
	C585.330872,219.135818 586.082886,218.433609 586.834900,217.731384 
	C598.089783,211.079468 609.322998,204.390610 620.607178,197.788773 
	C628.043579,193.438034 635.553345,189.212585 643.753906,184.845215 
	C647.630249,182.796371 650.782898,180.833405 653.935547,178.870422 
	C653.935547,178.870407 654.325317,178.796509 654.847412,178.761398 
	C655.884277,178.122208 656.398926,177.518143 656.913635,176.914078 
	C656.913635,176.914078 656.941162,176.972580 657.279541,176.942123 
	C658.383484,176.245651 659.148987,175.579636 659.914490,174.913620 
	C659.914490,174.913620 659.939148,174.957001 660.307617,174.955338 
	C661.772034,174.264069 662.868042,173.574463 663.963989,172.884827 
	C663.963989,172.884827 664.368164,172.818436 664.952454,172.834595 
	C666.977661,171.855942 668.418579,170.861115 669.859436,169.866272 
	C669.859436,169.866272 669.891174,169.877533 670.256714,169.876923 
	C671.760620,168.944489 672.898926,168.012695 674.037231,167.080872 
	C680.853271,163.011627 687.627625,158.870346 694.494507,154.888824 
	C707.058228,147.604156 719.676636,140.413864 732.953491,133.044220 
	C734.690552,132.192764 735.746399,131.481293 736.802307,130.769821 
	C738.240479,129.824905 739.678650,128.879990 741.829041,127.849236 
	C748.523254,126.746796 753.085083,123.415550 756.938721,118.930031 
	C756.938721,118.930031 756.965576,118.982056 757.343750,118.955673 
	C761.134644,116.930412 764.547424,114.931526 767.960205,112.932648 
	C774.029114,109.899002 780.097961,106.865334 786.803711,104.012047 
	C793.292542,101.770470 799.144531,99.348511 804.996521,96.926567 
	C806.105530,96.370277 807.214539,95.813972 809.031128,95.151169 
	C811.157288,95.043159 812.575928,95.041649 814.201416,95.164917 
	C815.236389,94.683266 816.064392,94.076828 817.147705,93.422470 
	C817.571838,93.336266 817.740662,93.297966 818.043518,93.505981 
	C819.143982,93.520363 820.110413,93.288437 821.524170,93.052200 
	C823.757263,93.004425 825.608459,93.247597 827.315369,92.858200 
	C830.926514,92.034370 834.462280,90.880234 838.393921,89.859482 
	C839.488525,89.856285 840.218201,89.855202 841.235718,90.078491 
	C843.380859,89.995010 845.238342,89.687157 847.414246,89.368431 
	C848.157410,89.342659 848.582031,89.327751 849.127319,89.373199 
	C849.247986,89.433548 849.646790,89.444794 849.646790,89.444794 
	C849.646790,89.444794 850.011963,89.278595 850.323669,89.277458 
	C851.050964,89.274773 851.466553,89.273224 852.106812,89.569214 
	C856.538513,89.914787 860.745605,89.962837 865.365967,90.026726 
	C866.885925,89.987816 867.992432,89.933060 869.239258,90.218430 
	C870.535706,91.050598 871.651672,91.812035 872.854614,91.991844 
	C882.118103,93.376640 891.447754,94.377525 900.655884,96.052963 
	C906.588684,97.132446 912.350769,99.150841 918.189331,100.748428 
	C927.231628,104.701111 936.646179,107.981102 945.242920,112.738792 
	C966.826294,124.683723 988.039917,137.296783 1009.782349,150.152252 
	C1015.502136,153.733032 1020.841492,156.803497 1026.180786,159.873947 
	C1038.880249,167.052994 1051.606079,174.185837 1064.272583,181.422714 
	C1080.272583,190.564178 1096.244385,199.755463 1112.190674,208.990433 
	C1126.695068,217.390518 1141.147705,225.880203 1155.625732,234.326080 
	C1165.947021,240.347214 1176.272461,246.361160 1186.908691,252.965759 
	C1189.498291,254.680176 1191.775513,255.807144 1194.052612,256.934113 
	C1194.052612,256.934113 1194.030640,256.975525 1194.107666,257.292633 
	C1197.273071,261.540009 1200.907715,264.562073 1206.196899,264.832031 
	C1206.196899,264.832031 1206.601685,264.897125 1206.923218,265.251678 
	C1208.188965,266.031128 1209.133179,266.456024 1210.077393,266.880951 
	C1210.077393,266.880951 1210.096924,266.923157 1210.145264,267.159180 
	C1210.814087,267.514038 1211.434692,267.632904 1212.055176,267.751770 
	C1238.700928,283.341064 1265.314819,298.985352 1292.002441,314.502625 
	C1314.272461,327.451233 1336.631104,340.247284 1358.945190,353.120300 
	C1362.510376,355.177124 1366.047485,357.282806 1369.916260,359.950378 
	C1373.950684,363.390778 1377.623047,366.307404 1381.432007,369.033234 
	C1381.966309,369.415558 1383.170166,368.862427 1384.064087,368.742310 
	C1395.829590,375.411835 1407.595215,382.081390 1419.755371,389.240540 
	C1426.852661,394.069275 1433.529419,398.450226 1440.306152,402.670319 
	C1440.867065,403.019684 1442.106323,402.279572 1443.030518,402.045593 
	C1443.769043,402.370575 1444.507446,402.695587 1445.601074,403.454651 
	C1447.685303,406.708435 1468.906250,421.985565 1472.215942,422.793335 
	C1472.215942,422.793335 1472.648682,422.829376 1472.920898,423.217651 
	C1474.464478,424.395355 1475.735718,425.184753 1477.007080,425.974121 
	C1482.263916,431.415649 1487.520630,436.857208 1493.045166,442.890869 
	C1494.203735,443.998566 1495.094482,444.514160 1495.985229,445.029724 
	C1495.985229,445.029755 1495.995239,445.005493 1496.007568,445.378448 
	C1499.746094,451.463684 1503.472046,457.175964 1507.197998,462.888275 
	C1510.875488,470.090088 1514.459839,477.341339 1518.251099,484.482697 
	C1524.935181,497.073120 1528.340820,510.732971 1531.344849,524.499451 
	C1532.609619,530.295715 1533.183350,536.242737 1533.861816,542.835144 
	C1534.062500,545.739868 1534.472534,547.930664 1534.882568,550.121521 
	C1534.871704,550.510071 1534.860840,550.898682 1534.622559,551.686279 
	C1534.557373,552.765747 1534.719604,553.446167 1534.881714,554.126648 
	C1534.875000,647.070312 1534.868286,740.013916 1534.533325,833.633057 
	C1532.630127,838.667786 1531.767334,842.992065 1534.833130,847.123779 
	C1534.843750,864.401184 1534.854370,881.678589 1534.548218,899.615723 
	C1532.562012,903.034851 1532.071167,905.704041 1534.832520,908.124268 
	C1534.858276,957.312927 1534.890259,1006.501526 1534.885132,1055.690186 
	C1534.885010,1057.503418 1534.522095,1059.316772 1534.008423,1061.866211 
	C1534.081421,1066.112793 1534.474365,1069.623169 1534.867188,1073.133423 
	C1534.863037,1099.410278 1534.858887,1125.687134 1534.527466,1152.635498 
	C1534.198364,1156.901001 1534.196533,1160.494995 1534.194824,1164.088989 
	C1534.186768,1164.517578 1534.178711,1164.946289 1533.809937,1165.828735 
	C1533.334717,1168.200439 1533.220093,1170.118164 1533.105713,1172.036011 
	C1533.011841,1173.383179 1532.917969,1174.730225 1532.544678,1176.615356 
	C1532.218872,1178.129150 1532.172485,1179.105103 1532.126099,1180.080933 
	C1532.087158,1180.485474 1532.048218,1180.890137 1531.733154,1181.682373 
	C1531.332031,1182.718994 1531.207275,1183.367920 1531.082520,1184.016846 
	C1531.021729,1185.055054 1530.960815,1186.093262 1530.573242,1187.677002 
	C1529.907959,1189.230469 1529.569580,1190.238647 1529.231201,1191.246704 
	C1523.652344,1212.424438 1514.943359,1232.106201 1500.886475,1249.831909 
	C1496.471680,1254.072876 1492.380127,1257.789795 1488.729370,1261.898193 
	C1485.290649,1265.768066 1482.316528,1270.050415 1479.137939,1274.151367 
	C1479.137939,1274.151367 1479.138184,1274.092041 1478.752197,1274.101074 
	C1474.926880,1274.610596 1473.224854,1276.665649 1473.031372,1280.070923 
	C1462.910767,1290.088379 1450.296753,1296.432007 1438.259766,1303.614014 
	C1424.517334,1311.813599 1410.716064,1319.914429 1396.217407,1328.120850 
	C1395.004028,1328.241821 1394.435181,1328.158447 1394.034546,1328.379639 
	C1385.376465,1333.158813 1376.708008,1337.921509 1368.134033,1342.848022 
	C1367.147095,1343.414917 1366.707275,1344.933960 1366.013916,1346.011475 
	C1365.529785,1346.304321 1365.045654,1346.597046 1363.906494,1346.968994 
	C1357.178833,1350.756104 1351.106323,1354.463867 1345.033813,1358.171631 
	C1345.033813,1358.171631 1344.737183,1358.293091 1344.183594,1358.246216 
	C1341.413208,1359.790405 1339.196533,1361.381348 1336.979858,1362.972412 
	C1336.207642,1363.354126 1335.435425,1363.735718 1334.124023,1364.001221 
	C1332.801147,1363.923828 1331.860474,1363.691895 1331.256348,1364.041504 
	C1317.400513,1372.057495 1303.508911,1380.016846 1289.808472,1388.292114 
	C1286.529419,1390.272705 1283.910034,1393.345337 1280.987305,1395.915649 
	C1280.648560,1396.048096 1280.309692,1396.180542 1279.372559,1396.337646 
	C1278.189209,1396.908447 1277.604370,1397.454712 1277.019531,1398.000977 
	C1273.999756,1399.714600 1270.979980,1401.428345 1267.258301,1403.175293 
	C1265.750122,1403.841064 1264.944092,1404.473511 1264.138184,1405.105957 
	C1262.675659,1406.016968 1261.213135,1406.927856 1259.091797,1407.998047 
	C1253.211914,1409.949951 1247.856323,1411.532715 1244.904175,1416.854370 
	C1243.977905,1417.331665 1243.051514,1417.809082 1241.427002,1418.305176 
	C1238.480225,1419.895142 1236.231812,1421.466431 1233.983521,1423.037598 
	C1232.876587,1423.635498 1231.769775,1424.233276 1229.992676,1424.972656 
	C1225.502319,1426.677002 1221.448730,1427.834961 1217.905640,1429.877930 
	C1206.847168,1436.254028 1195.953491,1442.919189 1185.080078,1449.609131 
	C1183.824951,1450.381226 1183.099487,1452.014526 1182.128540,1453.248657 
	C1181.637695,1453.503784 1181.146729,1453.758911 1180.001709,1454.078125 
	C1175.221558,1456.205811 1171.031860,1458.152466 1166.981934,1460.356323 
	C1156.801025,1465.896606 1146.602905,1471.414062 1136.565186,1477.206665 
	C1128.526978,1481.845459 1120.666382,1486.800171 1112.841919,1491.794556 
	C1111.291748,1492.783936 1110.264648,1494.592407 1108.996338,1496.022949 
	C1107.214844,1496.939209 1105.433350,1497.855469 1102.990845,1498.946777 
	C1093.887085,1504.092407 1085.444336,1509.063110 1077.001465,1514.033936 
	C1077.001465,1514.033813 1076.631714,1514.144287 1076.056396,1514.165649 
	C1073.693604,1515.538330 1071.905884,1516.889648 1070.118164,1518.240967 
	C1069.673706,1518.527954 1069.229126,1518.815063 1068.121826,1519.127441 
	C1066.199829,1519.454102 1064.797974,1519.495483 1063.703613,1520.096680 
	C1052.001221,1526.523438 1040.274414,1532.912842 1028.733154,1539.620361 
	C1025.892700,1541.271118 1023.700684,1544.037598 1021.210632,1546.291138 
	C1020.364685,1546.909302 1019.518799,1547.527466 1018.189697,1548.074097 
	C1017.189697,1548.416626 1016.672974,1548.830688 1016.156128,1549.244629 
	C1014.050415,1550.463257 1011.944702,1551.681763 1009.203064,1553.054688 
	C1007.756042,1553.852051 1006.944946,1554.494995 1006.133850,1555.137939 
	C1003.698547,1556.716675 1001.263245,1558.295410 998.135315,1559.993286 
	C991.409729,1563.088379 985.263489,1565.860962 979.394287,1569.130859 
	C976.698730,1570.632812 974.546997,1573.110718 972.148621,1575.145996 
	C972.148621,1575.145996 972.119873,1575.096558 971.731445,1575.102417 
	C969.809814,1575.689453 968.188171,1576.106445 966.756958,1576.876953 
	C952.045410,1584.798462 937.700073,1593.497437 922.580933,1600.536987 
	C907.426331,1607.593262 891.346619,1612.399536 874.535461,1614.184326 
	C872.289185,1614.422852 870.124634,1615.430786 867.922241,1616.082520 
	C867.512268,1616.104858 867.102295,1616.127319 866.038696,1615.909668 
	C859.211853,1615.797241 853.038757,1615.925049 846.865601,1616.052734 
	C846.472839,1616.060547 846.080078,1616.068481 845.205078,1615.717407 
	C843.352966,1614.922974 842.011597,1614.269775 840.608643,1614.085693 
	C826.044312,1612.173950 811.958679,1608.557617 798.246887,1603.212036 
	C773.607727,1593.606323 752.573120,1577.491943 729.306580,1565.404785 
	C719.192139,1560.150269 709.766602,1553.584351 699.906738,1547.821777 
	C683.742920,1538.374756 667.450073,1529.148682 651.269958,1519.729126 
	C641.374817,1513.968506 631.625916,1507.956909 621.744934,1502.171509 
	C605.452820,1492.632568 589.111267,1483.178101 572.782349,1473.702148 
	C557.003479,1464.545410 541.227844,1455.383057 525.426025,1446.265869 
	C507.332794,1435.826660 489.166016,1425.514038 471.118225,1414.996826 
	C456.638184,1406.558716 442.281586,1397.908325 427.883148,1389.330322 
	C422.047333,1385.853516 416.330383,1382.168335 410.410431,1378.843140 
	C399.709656,1372.832275 388.774719,1367.231934 378.156555,1361.082031 
	C356.337830,1348.445190 334.685242,1335.521729 312.896637,1322.832275 
	C310.718933,1321.564087 308.076324,1321.094238 305.496429,1320.217773 
	C305.343353,1320.181885 305.043091,1320.074585 305.009552,1319.712769 
	C303.902679,1318.182007 303.022736,1316.697632 301.721710,1315.900024 
	C296.768616,1312.863525 291.729004,1309.956665 286.608734,1307.212402 
	C285.236664,1306.476929 283.463745,1306.489258 281.855530,1306.190674 
	C281.836243,1306.222900 281.761780,1306.232666 281.740845,1305.882568 
	C280.064697,1304.006470 278.643890,1302.032837 276.717743,1301.024658 
	C258.950714,1291.725220 243.009735,1280.255005 229.431702,1265.239502 
	C216.746872,1251.211914 206.282364,1235.894775 197.826538,1218.717529 
	C196.815842,1217.948853 195.905197,1217.490234 194.994553,1217.031494 
	C194.994553,1217.031494 194.992798,1217.009766 194.869141,1216.802734 
	C194.558319,1216.323730 194.328705,1216.094482 194.056625,1215.907715 
	C194.001801,1215.484863 193.946976,1215.062134 194.177780,1214.228760 
	C194.764267,1213.289673 195.440231,1212.634277 195.310730,1212.251343 
	C192.567856,1204.142334 189.734375,1196.063843 186.923874,1187.655762 
	C186.903671,1186.901123 186.878143,1186.470215 186.848938,1185.669678 
	C185.919373,1183.500000 184.993454,1181.700195 184.058945,1179.539429 
	C184.035187,1178.453979 184.020004,1177.729370 184.160461,1176.698364 
	C183.550262,1172.910889 182.784424,1169.429932 181.768509,1165.936157 
	C181.351517,1165.921021 181.184586,1165.918579 181.017670,1165.916260 
	C180.978409,1165.187012 180.939133,1164.457764 181.200195,1163.272705 
	C181.271072,1161.900391 181.041611,1160.983765 180.812134,1160.067261 
	C180.598053,1158.960083 180.383972,1157.852783 180.450378,1156.263184 
	C180.483383,1154.529907 180.235916,1153.278931 179.988449,1152.028076 
	C179.988449,1152.028076 179.974884,1152.035522 180.019211,1151.727051 
	C180.089996,1150.999756 180.116455,1150.581055 180.456177,1149.935059 
	C181.104141,1149.150513 181.723206,1148.596924 181.730698,1148.035156 
	C181.834641,1140.239380 181.916000,1132.441650 181.813507,1124.646973 
	C181.801437,1123.729126 180.666946,1122.825928 179.841034,1121.884033 
	C179.629303,1121.851929 179.204468,1121.797485 179.174561,1121.439331 
	C179.158417,1120.123901 179.172211,1119.166504 179.401428,1118.176880 
	C179.616867,1118.144531 180.045380,1118.057007 180.331726,1117.921631 
	C180.451065,1116.480591 180.284058,1115.174927 180.125504,1113.581787 
	C180.141312,1112.912231 180.148666,1112.530151 180.469452,1111.942139 
	C181.178802,1110.349609 181.916382,1108.964111 181.920074,1107.576660 
	C181.989288,1081.609253 182.004135,1055.641479 181.893005,1029.674438 
	C181.886108,1028.062744 180.745880,1026.455811 180.135071,1024.468262 
	C179.899673,1022.383911 179.662155,1020.677856 179.366043,1018.667603 
	C179.318405,1017.951599 179.329346,1017.539734 179.512695,1016.745117 
	C179.823257,1009.949524 179.961411,1003.536682 180.358734,996.988770 
	C180.444427,995.863708 180.270966,994.873657 180.101547,993.437378 
	C179.881134,989.318542 179.656677,985.645874 179.325226,981.663940 
	C178.919891,980.772644 178.621582,980.190674 178.323273,979.608643 
	C178.410339,979.283386 178.497421,978.958191 178.903656,978.228394 
	C179.521118,976.927429 179.819412,976.031067 180.335632,975.024536 
	C180.408188,974.231384 180.262833,973.548401 180.127869,972.577026 
	C180.131271,971.903992 180.124283,971.519348 180.364746,971.007507 
	C181.904648,967.471069 182.988235,964.072144 180.118820,960.474487 
	C180.119583,958.763611 180.117706,957.447571 180.403412,955.957764 
	C180.475861,954.169800 180.260712,952.555725 179.781403,950.898804 
	C179.339661,950.839172 179.162079,950.822327 178.984482,950.805420 
	C178.940781,950.444092 178.897079,950.082703 178.911041,949.454346 
M1431.442505,1144.851196 
	C1431.631714,1144.566406 1431.820923,1144.281738 1432.487793,1143.476807 
	C1434.087280,1141.012817 1435.422241,1138.588501 1431.241089,1136.105469 
	C1431.129272,1135.832153 1431.017456,1135.558960 1430.773193,1135.137695 
	C1430.773193,1135.137695 1430.408813,1134.922485 1430.291626,1134.544678 
	C1430.291626,1134.544678 1430.407471,1134.166504 1431.042358,1133.877686 
	C1431.992188,1132.387451 1433.699219,1130.928345 1433.761841,1129.401611 
	C1434.047485,1122.442505 1434.020508,1115.459229 1433.786621,1108.495361 
	C1433.694824,1105.762329 1432.224243,1103.036621 1432.326782,1100.343628 
	C1432.601562,1093.129395 1433.587646,1085.942139 1433.866699,1078.727905 
	C1433.970703,1076.036255 1432.398438,1073.285645 1432.470703,1070.585571 
	C1432.601196,1065.719971 1433.395264,1060.872314 1433.979614,1055.382324 
	C1432.195068,1056.059448 1431.300781,1056.398682 1430.246460,1055.846924 
	C1430.258911,1044.313965 1430.271362,1032.781128 1430.740845,1020.807007 
	C1431.207153,1019.880859 1431.673584,1018.954773 1432.785034,1017.661621 
	C1432.531616,1013.433044 1432.278076,1009.204468 1432.290161,1004.403381 
	C1431.631714,1003.229370 1430.973267,1002.055359 1430.222656,1000.070740 
	C1430.283691,996.107544 1430.344727,992.144348 1431.064331,987.983887 
	C1431.805908,986.484924 1433.127563,984.997742 1433.158203,983.484436 
	C1433.208740,980.987000 1432.425293,978.472595 1431.925415,975.317139 
	C1431.381470,974.439331 1430.837524,973.561523 1430.217651,971.850586 
	C1430.243164,969.342529 1430.268799,966.834473 1430.704102,964.191406 
	C1430.567871,963.685669 1430.431519,963.179871 1430.224976,962.219482 
	C1430.201538,961.911011 1430.225098,961.606140 1430.913208,960.883972 
	C1430.707520,958.154480 1430.501831,955.424927 1430.225586,952.239136 
	C1430.202026,951.929565 1430.225708,951.623596 1430.706421,951.190430 
	C1430.569824,950.686218 1430.433228,950.182007 1430.219604,948.784363 
	C1430.244995,933.957886 1430.270508,919.131348 1430.911621,903.878540 
	C1430.703369,901.148621 1430.495117,898.418762 1430.209351,894.895691 
	C1430.235840,893.038025 1430.262329,891.180359 1430.699097,889.189819 
	C1430.562256,888.685120 1430.425415,888.180420 1430.215942,887.222107 
	C1430.191650,886.913879 1430.215942,886.609558 1430.856201,885.988403 
	C1430.668823,884.556458 1430.481445,883.124512 1430.218628,881.017151 
	C1430.244263,880.112488 1430.270020,879.207886 1430.935913,877.837830 
	C1430.722534,872.457214 1430.509155,867.076660 1430.225464,861.239624 
	C1430.201904,860.929932 1430.225830,860.623901 1430.816772,860.147827 
	C1431.208130,859.773926 1431.599487,859.400024 1432.465210,858.872437 
	C1432.304688,858.240967 1432.144287,857.609497 1431.638550,856.560120 
	C1431.191406,856.266296 1430.744385,855.972473 1430.220215,854.914673 
	C1430.245850,853.379639 1430.271362,851.844666 1430.838135,850.034546 
	C1430.657715,848.919617 1430.477295,847.804749 1430.219604,845.794922 
	C1430.245361,826.966492 1430.271118,808.138123 1430.837646,789.035156 
	C1430.657349,787.920105 1430.477173,786.804993 1430.219482,784.795044 
	C1430.283325,770.916260 1430.347168,757.037476 1430.928833,742.908508 
	C1430.756226,741.885925 1430.583618,740.863281 1430.239136,738.938538 
	C1430.255615,725.066528 1430.272217,711.194519 1430.697021,697.189697 
	C1430.560913,696.685242 1430.424683,696.180786 1430.209717,694.883057 
	C1430.235840,693.023987 1430.261963,691.164856 1430.911499,688.877258 
	C1431.268066,686.591675 1431.624756,684.306030 1432.575684,681.774231 
	C1432.373901,680.510437 1432.172119,679.246643 1431.949707,677.087585 
	C1431.964844,674.402405 1431.979980,671.717285 1432.617676,668.751587 
	C1432.644043,667.157593 1432.670532,665.563660 1432.654297,663.163879 
	C1432.429199,660.116272 1432.203979,657.068726 1432.563110,653.801331 
	C1434.135376,651.375183 1434.813843,649.025696 1431.943726,646.273804 
	C1431.391968,645.079590 1430.840210,643.885376 1430.209229,641.796265 
	C1430.236816,629.638916 1430.264404,617.481567 1430.812378,605.147095 
	C1431.204468,604.775391 1431.596680,604.403625 1432.608521,603.761108 
	C1432.406006,601.835266 1432.203491,599.909485 1431.803711,597.367432 
	C1431.379272,596.909546 1430.954834,596.451599 1430.517334,595.880615 
	C1430.517334,595.880615 1430.412109,595.837280 1430.242798,594.935547 
	C1430.270508,586.498657 1430.298340,578.061768 1430.990356,569.657227 
	C1431.188110,568.433411 1431.385742,567.209534 1431.791992,565.272888 
	C1431.850830,564.537170 1431.909668,563.801514 1432.630859,562.737976 
	C1433.208984,559.810120 1433.927734,556.897095 1434.239746,553.941162 
	C1434.298218,553.386902 1432.730835,552.661011 1431.114258,551.936707 
	C1430.846436,551.944580 1430.578735,551.952393 1430.225464,551.401428 
	C1430.247803,550.846497 1430.270020,550.291565 1430.757080,549.043091 
	C1430.834961,546.699646 1430.912842,544.356262 1431.556885,541.779907 
	C1431.814209,541.220825 1432.421631,540.540527 1432.276245,540.120789 
	C1430.049683,533.689331 1428.100586,527.121155 1425.295776,520.944153 
	C1423.306763,516.563904 1421.522705,511.488708 1415.452271,509.666107 
	C1415.208618,509.141296 1414.964966,508.616486 1415.132690,507.638428 
	C1413.386719,505.797943 1411.640625,503.957489 1409.985352,502.015594 
	C1409.985352,502.015594 1409.882568,502.104828 1409.805786,501.385529 
	C1408.582886,496.778717 1404.784668,495.450653 1400.705688,494.331726 
	C1400.705688,494.331726 1400.685913,494.215607 1400.592773,493.521820 
	C1399.373047,493.054291 1398.153198,492.586761 1396.913330,492.094177 
	C1396.913330,492.094177 1396.885376,492.110138 1396.752808,491.472076 
	C1395.143921,490.723083 1393.535156,489.974091 1391.363892,488.806305 
	C1389.151733,487.532684 1386.928101,486.278687 1384.730347,484.980713 
	C1381.809204,483.255585 1378.917969,481.480164 1375.996338,479.755981 
	C1373.326050,478.180176 1370.632446,476.643707 1367.736450,474.459198 
	C1366.801270,474.012085 1365.866211,473.564972 1364.917480,473.077789 
	C1364.917480,473.077789 1364.888428,473.108551 1364.720215,472.447174 
	C1363.386719,471.736664 1362.053345,471.026184 1360.176514,470.026917 
	C1359.426270,469.709320 1358.676025,469.391724 1357.879639,468.348297 
	C1355.235718,466.925201 1352.591797,465.502075 1349.936401,464.037445 
	C1349.936401,464.037445 1349.926514,464.084808 1349.746338,463.415710 
	C1347.478882,462.303406 1345.211548,461.191101 1342.958374,460.010925 
	C1342.958374,460.010925 1342.926758,460.077179 1342.825073,459.587189 
	C1342.215088,459.409943 1341.605225,459.232666 1340.338135,458.858887 
	C1338.231812,457.577728 1336.125488,456.296570 1333.832886,454.320984 
	C1331.815430,453.275574 1329.797974,452.230164 1327.378418,451.152893 
	C1327.378418,451.152893 1326.983887,451.068756 1326.792358,450.413971 
	C1322.206421,445.393219 1316.592773,442.244415 1309.263794,440.925812 
	C1308.167236,440.312012 1307.070557,439.698181 1305.802734,438.453064 
	C1304.187866,437.688873 1302.572998,436.924652 1300.302124,436.004486 
	C1298.844116,435.045349 1297.385986,434.086212 1295.804443,432.427246 
	C1290.823730,429.654419 1285.843018,426.881592 1280.223999,423.807465 
	C1272.986694,419.675568 1265.719482,415.595032 1258.518066,411.401550 
	C1241.486084,401.483398 1224.485107,391.511841 1207.472168,381.561157 
	C1200.956055,377.749939 1194.441162,373.936707 1187.747437,369.506317 
	C1187.065063,369.092834 1186.382690,368.679321 1185.131714,368.222717 
	C1184.758423,368.151825 1184.385010,368.080902 1183.852295,367.339996 
	C1181.134888,365.643921 1178.417358,363.947845 1175.338257,362.216064 
	C1175.338257,362.216064 1174.991577,362.107544 1174.664307,361.497986 
	C1172.294922,359.714447 1170.107422,357.587708 1167.519653,356.216125 
	C1161.426880,352.986786 1155.142944,350.117737 1148.922607,347.059540 
	C1148.922607,347.059540 1148.898682,347.098389 1148.808350,346.592651 
	C1148.181885,346.455658 1147.555420,346.318665 1146.369141,346.042755 
	C1145.875244,345.760956 1145.381470,345.479126 1144.739990,344.515228 
	C1140.692749,341.033417 1137.224854,336.467316 1130.348145,336.991577 
	C1129.530396,336.384399 1128.712769,335.777252 1127.828735,334.646545 
	C1127.202637,334.474396 1126.576538,334.302277 1125.395630,333.991241 
	C1124.898804,333.718536 1124.401978,333.445831 1123.738403,332.508850 
	C1122.790527,332.033630 1121.842529,331.558411 1120.205933,330.935913 
	C1118.885742,330.247681 1117.507690,329.650543 1116.254395,328.856781 
	C1106.119995,322.438263 1096.128906,315.783356 1085.854492,309.598755 
	C1076.880737,304.197144 1067.466675,299.528168 1058.478149,294.149658 
	C1044.236084,285.627747 1030.306396,276.581818 1016.023499,268.131256 
	C1000.747253,259.093048 985.188171,250.534378 969.801147,241.681900 
	C949.481445,229.991562 929.417053,217.836578 908.829956,206.640579 
	C898.291260,200.909241 887.010620,196.422684 875.784058,192.104965 
	C860.568604,186.253235 845.108398,188.360901 830.531555,194.055710 
	C819.634094,198.313110 809.467346,204.561096 799.237976,210.384293 
	C774.974243,224.196823 750.872925,238.294739 726.693420,252.255524 
	C712.485352,260.459015 698.200195,268.530273 684.046387,276.826019 
	C668.999023,285.645477 654.089783,294.700256 639.075806,303.577118 
	C625.769775,311.444183 612.416138,319.231171 599.058533,327.010590 
	C587.463013,333.763794 575.795410,340.393860 564.225891,347.191101 
	C546.892944,357.374481 529.679504,367.762543 512.299438,377.864349 
	C497.540833,386.442444 482.544922,394.612244 467.786591,403.190796 
	C448.429474,414.442413 429.217651,425.943695 409.914185,437.288055 
	C397.609589,444.519257 385.229523,451.622009 372.924469,458.852417 
	C359.192383,466.921417 345.467285,475.003845 331.812714,483.202972 
	C319.248596,490.747284 306.988464,498.637909 297.913239,510.600800 
	C292.028656,518.357788 287.036072,526.443115 285.013458,536.568848 
	C285.013458,536.568848 285.074982,537.052002 285.051788,537.053406 
	C285.051788,537.053406 285.086182,537.067322 284.508820,537.211853 
	C284.372955,538.144470 284.237091,539.077087 284.040314,540.843445 
	C283.926544,542.231323 283.812805,543.619202 283.075989,545.323914 
	C282.391296,548.282043 281.111420,551.239441 281.108185,554.198364 
	C281.002716,651.601562 281.018066,749.004822 281.018951,846.408142 
	C281.019562,911.845459 281.023804,977.282776 281.029205,1042.720093 
	C281.031952,1075.698730 280.936890,1108.678101 281.162964,1141.655151 
	C281.195740,1146.435791 282.781647,1151.205688 283.773865,1156.877808 
	C284.462067,1161.198120 282.956238,1166.191162 287.843384,1169.911621 
	C287.991791,1170.553345 288.140198,1171.195190 287.905518,1172.347046 
	C288.383759,1174.544800 288.862000,1176.742554 289.572693,1179.558472 
	C295.709625,1192.828857 306.118774,1202.086914 318.272034,1210.534912 
	C319.207397,1210.999390 320.142792,1211.463867 321.463257,1212.193604 
	C321.711517,1212.387329 321.921967,1212.615967 322.287994,1213.537109 
	C326.276581,1215.618896 330.265167,1217.700806 334.654846,1219.807617 
	C334.654846,1219.807617 335.046295,1219.898682 335.225525,1220.566772 
	C337.814636,1222.048828 340.403717,1223.530762 342.999878,1225.000000 
	C342.999878,1225.000000 342.988190,1225.010620 343.236664,1225.627930 
	C344.204773,1226.043701 345.172913,1226.459473 346.675293,1227.023560 
	C347.138092,1227.314575 347.600891,1227.605591 348.271118,1228.538086 
	C349.223938,1228.988770 350.176727,1229.439453 351.813965,1230.070068 
	C358.896454,1234.009644 365.978943,1237.949097 373.234741,1242.554688 
	C376.488434,1244.371338 379.742157,1246.187988 383.000000,1248.000000 
	C383.000000,1248.000000 382.996368,1248.005737 383.225250,1248.649658 
	C384.815857,1249.438843 386.406494,1250.227905 388.658051,1251.214600 
	C390.977692,1252.491211 393.328064,1253.715332 395.611969,1255.052979 
	C410.897583,1264.004883 426.172668,1272.974609 441.444153,1281.950684 
	C454.996094,1289.916138 468.538971,1297.897095 482.199127,1306.573853 
	C486.676788,1312.483032 492.780304,1315.306396 500.660919,1316.126831 
	C502.116364,1317.065552 503.571777,1318.004272 505.211029,1319.578369 
	C507.156647,1320.647461 509.102264,1321.716553 511.718231,1322.997437 
	C518.797424,1327.004028 525.876648,1331.010498 533.135986,1335.667969 
	C534.176147,1336.350830 535.216370,1337.033691 536.855225,1338.027832 
	C538.601135,1338.963745 540.347046,1339.899536 542.240051,1341.514893 
	C551.378357,1347.099854 560.498840,1352.714600 569.682617,1358.223877 
	C570.608887,1358.779419 571.918457,1358.696045 573.069031,1358.932495 
	C573.069031,1358.932495 573.093140,1358.914429 573.165588,1359.420898 
	C573.781433,1359.580322 574.397278,1359.739868 575.564758,1360.059937 
	C576.051514,1360.354614 576.538269,1360.649414 577.153564,1361.612549 
	C578.172058,1362.333496 579.190552,1363.054321 580.623779,1363.818970 
	C580.623779,1363.818970 581.029175,1363.916870 581.357178,1364.479004 
	C582.292847,1364.930298 583.228516,1365.381714 584.669556,1366.301270 
	C601.771484,1376.196655 618.873413,1386.092041 636.163269,1396.666382 
	C638.192200,1397.679688 640.221069,1398.692871 642.870422,1399.785889 
	C643.617188,1400.131104 644.363953,1400.476318 645.248413,1401.503418 
	C648.195068,1403.296997 651.141724,1405.090454 654.031311,1406.964233 
	C654.031311,1406.964233 654.108032,1406.902466 654.192993,1407.403687 
	C654.803650,1407.525513 655.414307,1407.647339 656.675171,1408.031494 
	C667.965332,1414.665527 679.310120,1421.208984 690.523743,1427.969971 
	C696.599609,1431.633301 702.268982,1435.994385 708.450012,1439.454346 
	C716.685791,1444.064575 725.405823,1447.812622 733.619385,1452.458740 
	C745.011841,1458.903198 756.147278,1465.804199 767.354858,1472.572388 
	C777.297607,1478.576904 787.049011,1484.912598 797.142029,1490.649780 
	C807.216064,1496.376099 817.471924,1501.828003 827.921997,1506.827515 
	C832.947083,1509.231567 838.602905,1510.317261 844.298706,1512.658813 
	C850.869324,1516.153076 859.559021,1515.903564 864.908081,1512.058838 
	C866.594666,1511.989014 868.281189,1511.919189 870.525391,1512.287476 
	C875.008118,1510.829834 879.490845,1509.372192 884.564453,1507.832886 
	C884.961243,1507.811035 885.357971,1507.789185 886.541687,1507.763672 
	C888.987793,1506.450806 891.433838,1505.137939 894.469543,1503.427002 
	C901.608154,1499.205811 908.746765,1494.984741 916.382874,1491.158325 
	C923.226685,1487.056396 930.070435,1482.954590 937.335815,1478.496948 
	C937.844482,1478.293823 938.353149,1478.090820 939.617371,1477.906616 
	C943.722351,1475.246582 947.827332,1472.586426 951.995117,1470.000000 
	C951.995117,1470.000000 951.938232,1469.923706 952.614685,1469.919434 
	C953.393921,1469.260132 954.173096,1468.600830 954.986511,1467.945068 
	C954.986511,1467.945068 954.964355,1467.970093 955.359741,1467.703491 
	C955.612244,1467.508423 955.843933,1467.291016 956.686340,1466.979980 
	C957.104980,1466.914917 957.523621,1466.849731 958.422607,1467.193359 
	C959.258484,1466.425659 960.094360,1465.657959 961.354736,1464.501831 
	C961.886292,1464.289185 962.417786,1464.076416 963.437500,1464.221191 
	C969.356140,1461.099609 975.336121,1458.085449 981.145020,1454.771484 
	C982.408081,1454.050903 983.058472,1452.256348 984.458191,1450.556519 
	C985.231445,1450.311279 986.004761,1450.066040 987.531311,1449.875854 
	C989.025574,1448.919800 990.519897,1447.963745 992.445618,1446.940552 
	C992.445618,1446.940552 992.878540,1446.885010 993.620056,1446.897583 
	C995.036255,1445.875000 996.452454,1444.852417 998.352905,1443.382446 
	C1000.215332,1442.191284 1002.077759,1441.000244 1004.420410,1440.180664 
	C1005.191711,1440.049927 1006.074219,1440.118164 1006.717651,1439.758667 
	C1015.229248,1435.001099 1023.725708,1430.215820 1032.189209,1425.373291 
	C1045.584106,1417.708984 1058.984741,1410.052856 1072.284546,1402.226318 
	C1073.819946,1401.322876 1074.729614,1399.356201 1076.424438,1397.413940 
	C1086.577148,1391.572510 1096.729858,1385.731079 1107.655884,1379.890991 
	C1109.833740,1379.148804 1112.205200,1378.738159 1114.152344,1377.600952 
	C1119.548828,1374.449707 1124.708984,1370.896240 1130.072388,1367.685547 
	C1137.550659,1363.208740 1145.187134,1358.994507 1152.620361,1354.446289 
	C1154.341431,1353.393188 1155.514160,1351.443848 1157.498169,1349.566040 
	C1158.996582,1348.674683 1160.494995,1347.783325 1162.461182,1347.245239 
	C1163.627563,1346.471313 1164.793945,1345.697510 1166.545898,1344.761841 
	C1167.284546,1344.431519 1168.023193,1344.101196 1169.396240,1343.716675 
	C1169.905640,1343.118774 1170.415039,1342.520874 1170.953125,1341.984741 
	C1170.953125,1341.984741 1170.945435,1341.919556 1171.702393,1341.918213 
	C1175.451660,1339.591431 1179.200806,1337.264771 1182.977539,1334.973145 
	C1182.977539,1334.973145 1182.959229,1334.946899 1183.766846,1334.982910 
	C1191.243164,1333.639282 1197.272095,1329.913086 1201.964478,1323.979858 
	C1201.964478,1323.979858 1201.963135,1323.935547 1202.743164,1323.970093 
	C1204.031128,1323.683228 1205.500732,1323.702148 1206.578735,1323.061768 
	C1216.147949,1317.375854 1225.668213,1311.606323 1235.133423,1305.749390 
	C1235.994995,1305.216064 1236.371338,1303.898438 1237.501709,1302.517456 
	C1244.299316,1298.647095 1251.096802,1294.776855 1258.671875,1290.913818 
	C1263.646606,1289.611572 1268.421753,1287.997803 1271.459961,1282.946899 
	C1271.459961,1282.946899 1271.897583,1282.923584 1272.672974,1282.925415 
	C1277.046509,1281.989502 1281.250610,1280.801025 1283.435669,1275.914062 
	C1283.435669,1275.914062 1283.857544,1275.864136 1284.597656,1275.883667 
	C1286.066284,1274.916016 1287.534790,1273.948242 1289.539429,1272.641724 
	C1290.649048,1272.049683 1291.758789,1271.457642 1293.595215,1270.877197 
	C1294.693848,1269.884155 1295.792480,1268.891113 1296.916870,1267.916992 
	C1296.916870,1267.916992 1296.937012,1267.891968 1297.665894,1267.903564 
	C1299.087402,1266.896729 1300.508911,1265.890015 1302.369263,1264.510376 
	C1302.900024,1264.296997 1303.430908,1264.083496 1304.475708,1264.247925 
	C1306.031860,1263.887573 1307.775391,1263.861938 1309.113892,1263.112793 
	C1317.902588,1258.193481 1326.682861,1253.247681 1335.284912,1248.013184 
	C1337.799561,1246.483032 1339.726074,1243.985962 1341.949829,1241.959839 
	C1341.949829,1241.959839 1341.956177,1241.921387 1342.630859,1241.907593 
	C1343.416504,1241.250000 1344.202148,1240.592407 1345.404175,1239.858643 
	C1345.404175,1239.858643 1345.826294,1239.827148 1346.583862,1239.866455 
	C1349.028076,1238.195435 1351.472290,1236.524414 1354.311890,1234.372803 
	C1355.192993,1233.864380 1356.074097,1233.355957 1357.426270,1233.218628 
	C1358.570435,1232.420288 1359.714600,1231.622070 1361.269653,1230.450806 
	C1361.776367,1230.236694 1362.283203,1230.022461 1363.554932,1229.856567 
	C1366.375366,1227.901123 1369.195801,1225.945679 1372.414673,1223.900024 
	C1372.414673,1223.900024 1372.819946,1223.847778 1373.563477,1223.798218 
	C1380.822754,1220.193970 1388.231812,1216.852905 1395.264648,1212.851196 
	C1397.935303,1211.331543 1399.740845,1208.291504 1401.967041,1205.987427 
	C1401.967041,1205.987427 1401.962158,1205.939453 1402.686401,1205.935059 
	C1404.086670,1204.573120 1405.486938,1203.211182 1407.263672,1201.320801 
	C1409.123535,1199.511353 1410.983398,1197.701904 1413.549438,1195.788574 
	C1414.358276,1194.508789 1415.167236,1193.229004 1416.313721,1191.422241 
	C1417.488892,1190.242920 1418.664062,1189.063599 1420.469727,1187.750977 
	C1420.919556,1187.090210 1421.369263,1186.429443 1421.851562,1185.376465 
	C1421.851562,1185.376465 1421.935791,1184.991943 1422.552368,1184.795654 
	C1423.282959,1183.150146 1424.013550,1181.504761 1424.908203,1179.259033 
	C1425.264526,1178.511841 1425.620972,1177.764526 1426.606445,1176.758301 
	C1426.991943,1175.759155 1427.377319,1174.760010 1427.747192,1173.159912 
	C1427.790894,1172.761841 1427.834473,1172.363892 1428.556030,1171.707275 
	C1430.557739,1167.970947 1433.290894,1164.335327 1430.198608,1159.279907 
	C1430.464111,1158.523560 1430.729614,1157.767334 1431.547485,1156.821289 
	C1431.460205,1155.852783 1431.372925,1154.884155 1431.164185,1153.346558 
	C1430.866211,1152.859863 1430.568237,1152.373047 1430.222778,1151.080933 
	C1430.274292,1149.468750 1430.325806,1147.856445 1430.745117,1146.014160 
	C1430.943237,1145.793701 1431.064819,1145.536987 1431.442505,1144.851196 
M1433.726074,1038.766602 
	C1433.268188,1038.618042 1432.810425,1038.469360 1432.352539,1038.320679 
	C1432.354126,1038.785034 1432.355591,1039.249390 1432.357178,1039.713745 
	C1432.813843,1039.559204 1433.270508,1039.404663 1433.726074,1038.766602 
M1433.727905,938.253174 
	C1433.386475,937.835999 1433.045166,937.418884 1432.703613,937.001709 
	C1432.528442,937.423401 1432.353149,937.845093 1432.177979,938.266846 
	C1432.639282,938.417542 1433.100464,938.568298 1433.727905,938.253174 
M1433.174561,1147.847778 
	C1432.909302,1148.107910 1432.644165,1148.368042 1432.379028,1148.628174 
	C1432.581909,1148.805298 1432.784790,1148.982544 1432.987671,1149.159668 
	C1433.148804,1148.814697 1433.309937,1148.469849 1433.174561,1147.847778 
M1433.143311,827.168579 
	C1433.215454,826.785278 1433.287720,826.401978 1433.359985,826.018677 
	C1433.095459,826.012024 1432.830811,826.005371 1432.566162,825.998718 
	C1432.623901,826.384766 1432.681641,826.770752 1433.143311,827.168579 
M1432.767090,606.828003 
	C1432.691528,607.211365 1432.616089,607.594788 1432.540649,607.978088 
	C1432.805542,607.987305 1433.070312,607.996460 1433.335205,608.005676 
	C1433.280518,607.618042 1433.225830,607.230469 1432.767090,606.828003 
M1433.066528,640.331238 
	C1433.027710,640.115784 1432.989014,639.900269 1432.950195,639.684814 
	C1432.899292,639.897339 1432.848267,640.109863 1433.066528,640.331238 
M1433.299561,968.903320 
	C1433.082764,968.941406 1432.865845,968.979492 1432.649048,969.017639 
	C1432.862671,969.069275 1433.076172,969.120911 1433.299561,968.903320 
z"/>
<path fill="#CC502E" opacity="1.000000" stroke="none" 
	d="
M1479.473877,1274.094482 
	C1482.316528,1270.050415 1485.290649,1265.768066 1488.729370,1261.898193 
	C1492.380127,1257.789795 1496.471680,1254.072876 1500.713379,1250.122437 
	C1500.393066,1251.903198 1499.730225,1253.746582 1499.123047,1255.970093 
	C1498.898560,1256.918579 1498.618408,1257.486816 1498.156982,1258.206299 
	C1495.193115,1260.564941 1492.327881,1262.677246 1489.649170,1265.004272 
	C1486.289307,1267.923218 1483.082520,1271.018555 1479.473877,1274.094482 
z"/>
<path fill="#CC502E" opacity="1.000000" stroke="none" 
	d="
M1472.107300,422.474731 
	C1468.906250,421.985565 1447.685303,406.708435 1445.889160,403.547119 
	C1450.906494,406.137207 1455.990845,409.068970 1461.381348,412.157104 
	C1465.124634,415.594360 1468.561646,418.875244 1472.107300,422.474731 
z"/>
<path fill="#C84F2E" opacity="1.000000" stroke="none" 
	d="
M1507.113281,462.533478 
	C1503.472046,457.175964 1499.746094,451.463684 1495.995483,445.382294 
	C1499.656860,450.735016 1503.342773,456.456879 1507.113281,462.533478 
z"/>
<path fill="#CC502E" opacity="1.000000" stroke="none" 
	d="
M1534.897827,846.652222 
	C1531.767334,842.992065 1532.630127,838.667786 1534.517944,834.093750 
	C1534.874634,837.979492 1534.918579,842.080017 1534.897827,846.652222 
z"/>
<path fill="#CC502E" opacity="1.000000" stroke="none" 
	d="
M1534.920166,1072.672485 
	C1534.474365,1069.623169 1534.081421,1066.112793 1533.938232,1062.270752 
	C1534.449707,1065.363159 1534.711426,1068.787354 1534.920166,1072.672485 
z"/>
<path fill="#CC502E" opacity="1.000000" stroke="none" 
	d="
M1534.393311,1163.728271 
	C1534.196533,1160.494995 1534.198364,1156.901001 1534.508789,1153.096680 
	C1534.742188,1156.380005 1534.666992,1159.873657 1534.393311,1163.728271 
z"/>
<path fill="#CC502E" opacity="1.000000" stroke="none" 
	d="
M1534.896973,907.668274 
	C1532.071167,905.704041 1532.562012,903.034851 1534.532471,900.076294 
	C1534.876099,902.322205 1534.918823,904.767212 1534.896973,907.668274 
z"/>
<path fill="#CC502E" opacity="1.000000" stroke="none" 
	d="
M1534.943237,549.699707 
	C1534.472534,547.930664 1534.062500,545.739868 1533.874634,543.236938 
	C1534.399170,545.042603 1534.701538,547.160278 1534.943237,549.699707 
z"/>
<path fill="#CC502E" opacity="1.000000" stroke="none" 
	d="
M1533.315674,1171.716309 
	C1533.220093,1170.118164 1533.334717,1168.200439 1533.780396,1166.148926 
	C1533.916260,1167.809204 1533.720947,1169.602905 1533.315674,1171.716309 
z"/>
<path fill="#CC502E" opacity="1.000000" stroke="none" 
	d="
M1476.851929,425.689636 
	C1475.735718,425.184753 1474.464478,424.395355 1473.133789,423.260132 
	C1474.281982,423.744598 1475.489380,424.574890 1476.851929,425.689636 
z"/>
<path fill="#CC502E" opacity="1.000000" stroke="none" 
	d="
M1532.321289,1179.804932 
	C1532.172485,1179.105103 1532.218872,1178.129150 1532.518555,1177.019531 
	C1532.686768,1177.766846 1532.601562,1178.647827 1532.321289,1179.804932 
z"/>
<path fill="#DAC4BF" opacity="1.000000" stroke="none" 
	d="
M1533.304199,520.235840 
	C1533.849121,520.866333 1534.243164,521.749512 1534.611816,523.011108 
	C1534.108521,522.422546 1533.630859,521.455566 1533.304199,520.235840 
z"/>
<path fill="#CC502E" opacity="1.000000" stroke="none" 
	d="
M1529.515137,1191.076172 
	C1529.569580,1190.238647 1529.907959,1189.230469 1530.538452,1188.065430 
	C1530.486572,1188.907471 1530.142700,1189.906616 1529.515137,1191.076172 
z"/>
<path fill="#C84F2E" opacity="1.000000" stroke="none" 
	d="
M1495.841309,444.752625 
	C1495.094482,444.514160 1494.203735,443.998566 1493.240967,443.159760 
	C1494.011841,443.382874 1494.854614,443.929230 1495.841309,444.752625 
z"/>
<path fill="#CC502E" opacity="1.000000" stroke="none" 
	d="
M1534.921143,553.750488 
	C1534.719604,553.446167 1534.557373,552.765747 1534.610596,551.977539 
	C1534.870728,552.371338 1534.915649,552.872864 1534.921143,553.750488 
z"/>
<path fill="#CC502E" opacity="1.000000" stroke="none" 
	d="
M1531.272949,1183.794434 
	C1531.207275,1183.367920 1531.332031,1182.718994 1531.693237,1181.984619 
	C1531.774292,1182.456787 1531.618774,1183.014282 1531.272949,1183.794434 
z"/>
<path fill="#C84F2E" opacity="1.000000" stroke="none" 
	d="
M918.006714,100.456757 
	C912.350769,99.150841 906.588684,97.132446 900.655884,96.052963 
	C891.447754,94.377525 882.118103,93.376640 872.854614,91.991844 
	C871.651672,91.812035 870.535706,91.050598 869.558960,90.085236 
	C875.713623,89.216660 881.688782,88.821404 887.663940,88.426147 
	C887.663940,88.426155 887.929810,88.439919 888.116028,88.905182 
	C889.141785,89.644974 889.981323,89.919502 890.820862,90.194031 
	C891.683960,90.145279 892.547119,90.096550 893.954590,90.287689 
	C895.157349,90.492638 895.815857,90.457718 896.474304,90.422806 
	C896.474304,90.422806 896.891418,90.376778 897.064697,90.805092 
	C898.178772,91.544312 899.119568,91.855217 900.060425,92.166122 
	C900.478516,92.154053 900.896606,92.141983 901.948914,92.351242 
	C903.549133,92.529114 904.515198,92.485641 905.481201,92.442169 
	C905.481201,92.442169 905.810486,92.378738 905.950439,92.467339 
	C907.322205,93.660957 908.426392,94.973671 909.813354,95.826118 
	C912.396667,97.413872 915.144714,98.733719 918.006714,100.456757 
z"/>
<path fill="#D14F2B" opacity="1.000000" stroke="none" 
	d="
M1442.807739,401.783508 
	C1442.106323,402.279572 1440.867065,403.019684 1440.306152,402.670319 
	C1433.529419,398.450226 1426.852661,394.069275 1420.057373,389.407288 
	C1427.504761,393.230072 1435.044922,397.375702 1442.807739,401.783508 
z"/>
<path fill="#D14F2B" opacity="1.000000" stroke="none" 
	d="
M1026.056396,159.557281 
	C1020.841492,156.803497 1015.502136,153.733032 1010.074585,150.328842 
	C1015.301575,153.076950 1020.616882,156.158783 1026.056396,159.557281 
z"/>
<path fill="#E74317" opacity="1.000000" stroke="none" 
	d="
M829.123230,1158.998779 
	C829.502930,1160.742310 829.882568,1162.485840 830.367676,1164.604736 
	C830.923828,1175.979492 831.374573,1186.978638 831.531616,1198.599121 
	C830.881836,1200.209229 830.525696,1201.198120 830.169556,1202.187012 
	C827.473633,1211.884521 826.092285,1222.211182 821.813721,1231.151245 
	C812.310364,1251.008667 800.096985,1269.011963 780.708740,1281.094849 
	C771.615906,1286.761597 763.274414,1293.643433 752.106384,1297.072021 
	C744.840637,1298.382935 738.350830,1299.627563 731.864319,1300.889526 
	C714.701172,1304.228516 697.643616,1304.060669 680.676575,1299.537476 
	C678.868774,1299.055420 676.877869,1299.260010 674.971924,1299.146240 
	C672.534851,1298.524780 670.097778,1297.903320 667.228882,1296.854980 
	C662.079712,1291.683228 656.237732,1289.267944 649.746460,1288.197632 
	C648.620239,1287.662231 647.493958,1287.126953 646.133850,1286.012207 
	C643.862244,1284.016479 641.824463,1282.600098 639.786743,1281.183838 
	C637.342163,1279.283203 634.897583,1277.382568 632.101685,1274.982178 
	C631.100037,1274.050171 630.449585,1273.618042 629.799194,1273.185913 
	C628.630371,1272.328369 627.461609,1271.470825 626.117065,1269.980225 
	C621.050659,1263.368896 616.170288,1257.381958 611.238281,1251.437988 
	C610.998047,1251.148438 610.305969,1251.233765 609.824280,1251.144409 
	C609.221924,1250.311035 608.619568,1249.477661 608.108398,1248.115723 
	C607.432861,1246.742554 606.666138,1245.897949 605.899414,1245.053223 
	C605.899414,1245.053223 605.813782,1244.651245 605.775757,1244.124023 
	C605.153015,1243.049927 604.568420,1242.503174 603.983765,1241.956421 
	C603.917236,1241.583862 603.850708,1241.211426 603.771240,1240.164062 
	C601.742859,1234.339478 599.833496,1229.144409 597.662109,1224.061401 
	C596.741760,1221.907227 595.271179,1219.987915 594.050720,1217.961914 
	C593.597229,1215.339233 593.143738,1212.716675 592.686951,1209.362671 
	C592.357788,1208.078491 592.031982,1207.525757 591.706177,1206.972900 
	C591.681702,1206.300049 591.657227,1205.627197 591.697083,1204.187622 
	C590.883057,1199.915527 590.004700,1196.410278 589.126404,1192.904907 
	C589.101807,1188.269287 589.077209,1183.633667 589.388062,1178.342896 
	C590.667297,1172.699463 591.722778,1167.728027 592.487122,1162.712402 
	C592.717773,1161.198486 592.140564,1159.561279 591.933472,1157.980591 
	C592.597046,1155.908203 593.260681,1153.835938 594.296875,1151.266846 
	C596.755615,1146.552612 599.111755,1142.441284 600.832397,1138.079468 
	C601.967102,1135.203003 602.187500,1131.965820 602.817261,1128.890137 
	C603.349731,1127.727783 603.882202,1126.565308 604.949768,1125.075928 
	C605.963562,1123.814087 606.442200,1122.879517 606.920898,1121.944824 
	C606.920898,1121.944824 606.980469,1121.945190 607.297607,1121.873535 
	C608.359802,1120.501343 609.104797,1119.200928 609.849854,1117.900513 
	C617.952393,1106.645020 627.034790,1096.474854 639.219055,1089.328491 
	C645.626221,1085.570679 651.184998,1080.233643 657.806580,1077.002930 
	C669.988159,1071.059204 682.751160,1067.266602 696.655090,1066.341797 
	C709.558044,1065.483521 722.248291,1065.537109 734.846252,1067.812744 
	C742.286377,1069.156982 749.769836,1071.264404 756.687622,1074.281006 
	C769.646484,1079.932007 772.488953,1079.772705 782.587341,1069.650146 
	C803.023193,1049.165283 823.475098,1028.696655 843.920898,1008.221741 
	C850.501770,1001.631592 856.990479,994.946045 863.685669,988.474060 
	C878.251343,974.393799 893.005432,960.507446 907.498535,946.353455 
	C911.634644,942.314148 914.895935,937.385376 918.983948,933.289246 
	C927.423035,924.833618 936.250488,916.766541 944.726807,908.347046 
	C952.832886,900.295471 960.680664,891.984314 968.672241,883.816772 
	C973.777222,878.599243 981.162964,878.487305 986.399536,883.807739 
	C994.448303,891.985474 1002.379272,900.282776 1010.217285,908.663025 
	C1015.104858,913.888672 1015.581909,920.775391 1011.137085,926.410278 
	C1008.407898,929.870239 1004.733948,932.568726 1001.668701,935.784973 
	C999.283508,938.287781 997.371765,941.251465 994.927307,943.686768 
	C972.400452,966.128845 949.815063,988.512268 927.219666,1010.885498 
	C919.901978,1018.131348 912.490723,1025.282715 905.155640,1032.511108 
	C903.855408,1033.792480 902.638489,1035.178101 901.522827,1036.623413 
	C896.231628,1043.478149 896.199646,1046.365601 902.180054,1052.669434 
	C907.855713,1058.651978 913.849121,1064.338867 919.835449,1070.015747 
	C920.964233,1071.086182 922.716553,1071.499146 924.563477,1072.197998 
	C925.226929,1072.251099 925.470032,1072.388794 925.767212,1073.094971 
	C925.924194,1074.030884 925.989197,1074.465332 926.141357,1075.272461 
	C930.149231,1079.425781 940.633850,1078.497559 944.958008,1073.986938 
	C948.706726,1072.611450 952.455383,1071.235962 956.771118,1069.990967 
	C957.855896,1069.687134 958.373535,1069.252686 958.891235,1068.818237 
	C960.019409,1068.548950 961.147583,1068.279785 962.945435,1068.207642 
	C968.485474,1067.748779 973.375000,1067.207031 978.219177,1066.394775 
	C981.200989,1065.894775 984.113647,1064.981689 987.057373,1064.253906 
	C990.382996,1064.247314 993.708679,1064.240723 997.692444,1064.556519 
	C1005.206116,1066.229126 1012.050293,1067.643677 1018.930115,1068.856079 
	C1019.895142,1069.026123 1021.034668,1068.205811 1022.093384,1067.843750 
	C1022.501709,1067.872681 1022.910095,1067.901611 1023.753296,1068.295898 
	C1028.431396,1071.003906 1032.574951,1073.567749 1036.978638,1075.554321 
	C1038.299561,1076.150269 1040.346436,1075.137207 1042.060669,1074.861206 
	C1042.885620,1075.428467 1043.710693,1075.995850 1044.895508,1077.086182 
	C1047.843018,1078.734375 1050.430786,1079.859619 1053.018433,1080.984863 
	C1053.018433,1080.984863 1053.000000,1081.000000 1053.111572,1081.309204 
	C1057.225830,1084.353027 1061.228638,1087.087646 1065.231445,1089.822266 
	C1067.733032,1091.685791 1070.532959,1093.260010 1072.677246,1095.470337 
	C1077.931763,1100.886597 1082.883911,1106.596436 1088.037231,1112.892456 
	C1089.125854,1115.009644 1090.134888,1116.422485 1091.143921,1117.835327 
	C1091.143921,1117.835327 1091.093506,1117.932861 1091.161987,1118.241699 
	C1092.509644,1119.687012 1093.788940,1120.823608 1095.068237,1121.960083 
	C1095.346924,1122.438354 1095.625732,1122.916748 1095.984253,1124.008057 
	C1096.730591,1125.405273 1097.397217,1126.189453 1098.063721,1126.973511 
	C1098.063721,1126.973511 1098.451416,1127.055908 1098.642700,1127.105957 
	C1098.865234,1127.560303 1098.896484,1127.964478 1098.775146,1128.941406 
	C1100.059692,1132.031616 1101.496582,1134.549316 1102.933472,1137.067139 
	C1103.015625,1137.784058 1103.097656,1138.500854 1103.052246,1139.757080 
	C1103.283081,1140.867554 1103.641602,1141.438599 1104.000000,1142.009766 
	C1104.992920,1144.423096 1105.985718,1146.836426 1106.878174,1149.875000 
	C1106.921997,1153.125854 1105.959595,1156.278931 1109.918213,1157.085449 
	C1109.937622,1157.501221 1109.957031,1157.916870 1109.783203,1158.976074 
	C1110.100342,1166.687378 1110.559937,1173.759888 1111.191040,1180.817017 
	C1111.262085,1181.611328 1112.303223,1182.318604 1112.908813,1183.376953 
	C1112.911377,1184.102051 1112.899658,1184.516479 1112.561523,1185.129883 
	C1111.838745,1186.370850 1111.204346,1187.385986 1111.085083,1188.458496 
	C1110.319336,1195.347656 1109.671753,1202.250000 1108.973633,1209.146851 
	C1108.739868,1211.456543 1108.472412,1213.762695 1108.220459,1216.070557 
	C1106.935425,1219.023315 1105.700928,1221.999390 1104.348022,1224.920776 
	C1103.373169,1227.025757 1101.716919,1228.949341 1101.263916,1231.139893 
	C1098.337769,1245.288940 1089.688721,1255.765259 1079.717896,1265.429077 
	C1075.208374,1269.799805 1070.809082,1274.322754 1065.970459,1278.303467 
	C1062.062378,1281.518677 1057.694458,1284.237793 1053.306396,1286.791626 
	C1047.630981,1290.095093 1041.732544,1293.015747 1035.137207,1296.094238 
	C1032.411255,1296.463013 1030.387451,1296.588989 1028.559082,1297.253052 
	C1008.902161,1304.391724 988.741638,1304.107788 968.625366,1300.502441 
	C958.235596,1298.640381 948.172546,1294.955811 937.961853,1292.094604 
	C937.961853,1292.094604 937.926270,1292.097900 937.855713,1291.737305 
	C937.436829,1290.826782 937.220215,1290.027344 936.720703,1289.763672 
	C924.523071,1283.322021 913.503174,1275.330566 903.973206,1265.307861 
	C903.282043,1264.580933 901.922607,1264.489380 900.873901,1264.102539 
	C896.647644,1258.321167 892.421387,1252.539917 888.026489,1246.124268 
	C887.193176,1244.682251 886.528503,1243.874634 885.863831,1243.067139 
	C885.863831,1243.067139 885.782288,1242.676514 885.778381,1242.134033 
	C885.124451,1240.749878 884.474365,1239.908325 883.824341,1239.066772 
	C883.824341,1239.066772 883.723511,1238.694580 883.729309,1238.104248 
	C881.431885,1231.035889 879.210022,1224.526733 876.753418,1218.107300 
	C876.289246,1216.894165 874.891846,1216.038330 873.925110,1215.017578 
	C873.283630,1212.562988 872.642090,1210.108276 871.846375,1207.306641 
	C871.729309,1205.923706 871.766479,1204.887573 871.961487,1203.275269 
	C871.764709,1202.111694 871.410156,1201.524536 871.055542,1200.937256 
	C870.970276,1200.231934 870.885010,1199.526489 871.000732,1198.243042 
	C870.859131,1196.742798 870.516541,1195.820801 870.173889,1194.898682 
	C870.174255,1188.266235 870.174622,1181.633789 870.477417,1174.407593 
	C870.780884,1172.858154 870.781860,1171.902466 870.782837,1170.946777 
	C873.692749,1160.787598 876.361023,1150.550171 879.617004,1140.503174 
	C881.188660,1135.653931 884.619385,1131.337036 885.750671,1126.442261 
	C886.394409,1123.656738 885.002258,1119.338379 882.967041,1117.183716 
	C874.979187,1108.727173 866.349060,1100.879150 858.002625,1092.758667 
	C853.635071,1088.509399 849.476685,1088.260986 845.016174,1092.630371 
	C836.686584,1100.789673 828.449402,1109.049072 820.368103,1117.453613 
	C815.675598,1122.333862 816.274231,1129.099609 821.807739,1134.930908 
	C822.980530,1136.486572 823.806641,1137.953369 824.667603,1139.828125 
	C824.702454,1140.235962 824.752625,1140.510376 824.580017,1140.682373 
	C824.587708,1141.591309 824.768005,1142.328369 824.968384,1143.031250 
	C824.988525,1142.996948 824.930969,1143.053223 824.965576,1143.390625 
	C825.670471,1144.544067 826.340698,1145.359985 827.010986,1146.175903 
	C827.010986,1146.175903 827.139038,1146.364136 827.068237,1146.844849 
	C827.517395,1150.189453 828.037476,1153.053223 828.477173,1156.233398 
	C828.638977,1157.365967 828.881104,1158.182373 829.123230,1158.998779 
z"/>
<path fill="#E74417" opacity="1.000000" stroke="none" 
	d="
M678.694397,918.715088 
	C678.492065,918.721313 678.292053,918.702637 677.953247,918.715210 
	C677.812134,918.771301 678.020752,918.353760 678.017700,917.870972 
	C677.540039,916.989258 677.065369,916.590332 676.590698,916.191406 
	C676.079712,915.731140 675.568726,915.270935 674.898865,914.250854 
	C674.057800,913.229004 673.375671,912.767090 672.693481,912.305115 
	C672.693481,912.305115 673.002441,912.031433 672.871460,911.808105 
	C671.494812,910.654358 670.249023,909.723877 669.003296,908.793396 
	C667.497986,907.398804 665.992676,906.004211 664.238159,904.007385 
	C660.028992,898.044800 655.543762,897.342163 650.598877,901.513306 
	C648.593689,903.204773 646.896606,905.261597 645.059326,907.152222 
	C638.561646,913.532227 631.513855,919.472290 625.866943,926.532715 
	C623.910950,928.978394 624.497314,934.479431 625.561768,938.103394 
	C627.694153,945.362427 630.956726,952.289368 633.998657,959.986816 
	C634.806641,961.249023 635.368591,961.877686 635.930603,962.506409 
	C635.957214,963.451355 635.983826,964.396301 636.112671,965.684937 
	C636.036438,967.787231 635.219543,969.788147 635.780518,971.266052 
	C640.240845,983.017700 638.688843,994.960083 636.710754,1006.749878 
	C635.207947,1015.706909 633.533936,1024.911743 629.994263,1033.174561 
	C626.284363,1041.834473 623.286804,1051.131592 616.024658,1058.107422 
	C611.630066,1062.328735 608.410706,1067.750610 604.466858,1072.468994 
	C598.276184,1079.875488 590.688843,1085.475220 582.742920,1091.045776 
	C568.653320,1100.923218 552.603455,1105.466797 536.525024,1108.168213 
	C511.661804,1112.345337 487.021027,1108.842529 463.983765,1097.705322 
	C445.759003,1088.894775 432.061157,1074.549561 419.248932,1059.432129 
	C414.788422,1054.169067 411.893646,1047.578857 408.077179,1040.995361 
	C407.203125,1039.629761 406.535645,1038.863647 405.868164,1038.097412 
	C405.571228,1037.599976 405.274323,1037.102661 405.098572,1036.052246 
	C404.134033,1032.997070 403.048370,1030.494751 401.962708,1027.992554 
	C401.934479,1027.557495 401.906281,1027.122437 402.084167,1026.082642 
	C401.786560,1022.098816 401.497192,1018.670349 400.731964,1015.351562 
	C399.383759,1009.504700 397.744995,1003.724854 396.227905,997.916931 
	C396.191956,993.278320 396.156036,988.639771 396.451904,983.341431 
	C397.189178,981.305054 397.704681,979.950256 397.981964,978.548340 
	C399.520447,970.768555 400.886749,962.952820 402.549988,955.200439 
	C403.374664,951.356689 404.708832,947.622192 405.812469,943.838257 
	C405.812469,943.838257 405.841217,943.401917 406.230255,943.104858 
	C408.043854,939.499817 409.468445,936.191833 410.893005,932.883911 
	C410.893005,932.883911 410.935059,932.446594 411.260681,932.098816 
	C412.009308,930.789429 412.432281,929.827820 412.855286,928.866211 
	C413.458710,928.077209 414.062073,927.288208 415.165161,926.148682 
	C416.396942,924.175293 417.129028,922.552368 417.861084,920.929443 
	C417.861115,920.929443 417.866150,920.897461 418.198334,920.798218 
	C418.987335,919.765747 419.444183,918.832581 419.901001,917.899353 
	C421.389954,916.033569 422.878967,914.167847 424.986755,912.068787 
	C428.723022,908.525818 431.840485,905.216187 434.958008,901.906616 
	C435.178772,901.704895 435.394073,901.497498 436.129791,901.111694 
	C443.112061,898.147217 448.722900,894.360107 452.339233,887.680908 
	C454.199829,886.988403 455.795288,886.574280 457.315582,885.970886 
	C466.145844,882.466125 474.958435,878.916809 484.174011,875.421753 
	C492.390198,873.904846 500.209412,872.348755 508.345123,870.802917 
	C509.084045,870.796143 509.506470,870.779053 510.115570,870.930237 
	C510.869568,870.740906 511.436890,870.383301 512.388855,869.703369 
	C512.959167,869.102722 513.144897,868.824341 513.330566,868.546021 
	C513.581421,868.592896 513.833984,868.605286 514.622437,868.924072 
	C515.779053,869.533203 516.401489,869.801392 517.178772,870.384888 
	C519.559753,870.729980 521.786011,870.759766 524.012207,870.789551 
	C536.164429,873.358337 548.373047,875.693970 560.439270,878.617676 
	C564.874146,879.692383 568.829834,882.872437 573.269958,883.756409 
	C576.681824,884.435608 581.254578,884.132874 583.993225,882.298889 
	C589.136230,878.854980 593.398743,874.062439 597.888123,869.687744 
	C601.097168,866.560730 604.178040,863.287720 607.139587,859.924377 
	C612.093079,854.298767 611.931396,850.025879 606.800476,844.667542 
	C599.353088,836.890015 591.853577,829.161255 584.486938,821.307983 
	C580.622437,817.188293 576.392822,816.649292 571.421753,819.028809 
	C566.941467,821.173401 562.345947,823.077209 557.180054,824.963135 
	C549.704163,826.250916 542.838745,827.614258 536.010010,829.141724 
	C535.235596,829.315002 534.667969,830.412598 534.004456,831.081604 
	C533.578857,831.119202 533.153198,831.156860 532.087585,830.950073 
	C527.864685,830.805603 524.236511,831.318909 520.706970,830.932190 
	C507.121246,829.443542 493.567108,827.666870 479.927979,825.764404 
	C479.239349,825.362061 478.623962,825.192993 477.662598,825.016418 
	C476.855865,825.033752 476.395050,825.058594 475.934265,825.083435 
	C475.934265,825.083435 475.996338,825.002441 475.861206,824.716187 
	C470.459717,821.561218 465.254425,818.570374 459.893311,815.891296 
	C458.056458,814.973328 455.829376,814.836243 453.780579,814.342407 
	C443.945404,809.866211 436.384003,802.584106 429.092377,794.052307 
	C428.173462,793.005371 427.564087,792.493225 426.954681,791.981079 
	C426.363739,791.213623 425.772797,790.446167 425.034485,789.047485 
	C420.566315,782.635437 416.245483,776.854553 411.924622,771.073669 
	C411.924622,771.073669 411.980255,771.052551 411.956177,770.677612 
	C410.931793,768.202942 409.931488,766.103271 408.870178,763.651062 
	C407.521973,761.543518 406.234741,759.788513 404.947510,758.033447 
	C404.904572,757.622009 404.861633,757.210510 404.785339,756.177734 
	C404.181854,755.022949 403.611786,754.489563 403.041687,753.956116 
	C402.729248,752.255676 402.416809,750.555237 402.010376,748.137939 
	C401.256989,746.286926 400.597626,745.152649 399.938263,744.018433 
	C399.900909,743.586304 399.863556,743.154114 400.060303,742.085327 
	C399.324005,734.895935 398.369324,728.340637 397.339508,721.797241 
	C397.284485,721.447632 396.596497,721.197632 396.203156,720.901245 
	C396.192230,715.292053 396.181305,709.682922 396.539612,703.530396 
	C399.977234,701.496338 399.077667,699.241028 398.073425,696.657043 
	C398.076416,695.938782 398.075165,695.528137 398.301819,695.023071 
	C398.687347,694.285767 398.845001,693.642883 398.942200,692.707458 
	C398.574677,691.908813 398.267578,691.402649 397.960480,690.896545 
	C398.023193,689.915771 398.085907,688.935059 398.364258,687.570312 
	C398.579834,687.186279 398.951416,687.145935 399.131958,687.251587 
	C399.546051,686.902832 399.779572,686.448486 400.022705,685.589966 
	C400.011414,684.105225 399.990540,683.024658 399.969666,681.944153 
	C400.026947,680.954834 400.084198,679.965576 400.383026,678.556030 
	C400.624573,678.135803 401.017395,678.015381 401.212433,677.859741 
	C401.587524,677.425171 401.767578,677.146240 401.947632,676.867371 
	C401.947632,676.867371 401.921661,676.433411 402.256439,676.087158 
	C404.698242,670.142578 406.805237,664.544189 408.912231,658.945801 
	C408.912231,658.945801 408.976044,658.945496 409.276062,658.853333 
	C410.201385,658.242310 410.945099,657.816040 411.434265,657.190735 
	C418.427185,648.251221 425.411346,639.304565 432.316071,630.297058 
	C433.076080,629.305664 433.333527,627.928894 433.824097,626.730957 
	C437.236053,623.476074 440.648041,620.221191 444.758423,616.861572 
	C446.498474,616.263489 447.549011,615.788086 448.580200,615.273865 
	C458.363892,610.394775 467.956360,605.073792 477.978302,600.747314 
	C488.069183,596.391052 498.855621,594.372253 509.901459,593.889160 
	C511.282379,593.828735 512.611267,592.579285 513.964294,591.880798 
	C514.710144,591.854065 515.455933,591.827393 516.863525,592.039429 
	C519.361816,592.128967 521.198486,591.979675 523.035095,591.830444 
	C524.747620,591.848450 526.460083,591.866394 528.760376,592.252075 
	C532.326599,592.994568 535.305054,593.369324 538.283447,593.744141 
	C538.975342,593.770813 539.667236,593.797546 540.819092,594.192261 
	C543.535278,594.971802 545.791504,595.383362 548.047729,595.794922 
	C548.778992,595.833862 549.510193,595.872803 550.720337,596.243835 
	C552.811096,596.989319 554.422974,597.402771 556.034912,597.816223 
	C556.974670,598.012146 557.914490,598.208130 559.001465,598.885010 
	C559.780212,599.606140 560.411804,599.846313 561.315674,600.032104 
	C562.086365,599.745300 562.584778,599.512817 563.083252,599.280396 
	C563.399597,599.317383 563.716309,599.351135 564.252441,599.668701 
	C564.840759,601.031799 564.891602,602.692932 565.628296,603.093811 
	C573.719604,607.496948 581.917725,611.703796 590.086914,615.963867 
	C598.624634,624.428894 607.162415,632.893921 615.864258,642.037598 
	C617.036316,644.131714 618.044250,645.547119 619.052185,646.962585 
	C619.052185,646.962585 619.020996,647.003235 619.024414,647.366638 
	C621.367065,652.601318 623.623230,657.515930 626.122864,662.303345 
	C626.566895,663.153809 628.023254,663.475586 629.095337,664.401855 
	C631.466858,669.841187 633.755188,674.920044 636.043457,679.998901 
	C636.181519,680.403687 636.319580,680.808533 636.260620,681.729004 
	C636.741089,687.133789 637.418579,692.022888 638.077271,697.296753 
	C638.381531,699.114563 638.704712,700.547546 639.045288,702.363159 
	C639.099792,703.766602 639.136780,704.787415 639.134888,706.128174 
	C639.082581,706.662537 639.069031,706.877014 639.037292,707.310425 
	C639.019165,707.529358 639.015015,707.968689 638.807312,708.260742 
	C637.502075,713.074646 636.546204,717.592224 639.035889,722.447998 
	C639.251831,723.751221 639.441345,724.612000 639.630859,725.472839 
	C639.612488,725.822021 639.594177,726.171204 639.099854,726.871460 
	C637.812073,730.233887 637.000366,733.245178 636.188599,736.256531 
	C633.557983,744.387634 630.944214,752.524292 628.283020,760.645508 
	C627.722107,762.357361 626.987366,764.012329 626.351562,766.331665 
	C626.263367,767.308838 626.156128,767.647949 626.048950,767.987000 
	C623.081848,770.251343 622.572815,772.945801 624.802307,775.974060 
	C626.276978,777.977051 627.737366,780.038696 629.499451,781.774170 
	C641.478455,793.571167 653.631714,805.192322 665.536865,817.062683 
	C674.710876,826.209839 683.486206,835.756592 692.651978,844.912231 
	C705.804871,858.050598 719.236938,870.909424 732.395508,884.042236 
	C751.339111,902.948669 770.043030,922.096069 789.066345,940.921326 
	C795.181824,946.973145 801.983459,952.331604 808.840820,958.027100 
	C809.458557,958.114014 809.656616,958.252502 809.908630,958.974915 
	C810.688660,959.984863 811.364807,960.482300 812.040955,960.979736 
	C812.040955,960.979736 811.998352,960.999512 811.937561,961.314819 
	C811.912415,962.085205 811.947998,962.540222 812.004211,963.356567 
	C813.748291,965.439270 815.471741,967.160706 817.464172,968.983093 
	C818.202576,969.656067 818.671997,970.228149 819.127625,971.197144 
	C820.042358,973.746460 820.970947,975.898804 821.854858,978.318848 
	C821.567444,979.063965 821.324646,979.541382 820.723633,980.040039 
	C817.592346,983.398499 814.819275,986.735779 811.769775,990.259338 
	C808.449707,993.451721 805.463928,996.519409 802.349365,999.450256 
	C797.177185,1004.317383 792.142700,1009.378906 786.564392,1013.736633 
	C784.940063,1015.005615 780.792908,1015.273376 779.288452,1014.097839 
	C770.970642,1007.598633 762.844055,1000.795288 755.172546,993.545227 
	C747.646362,986.432434 740.756287,978.647827 733.561523,971.182556 
	C729.209167,966.666504 724.802979,962.202393 720.436279,957.700012 
	C719.862915,957.108887 719.423950,956.387451 718.850708,955.796082 
	C710.969971,947.665833 703.423889,939.165283 695.057251,931.568787 
	C689.963989,926.944458 686.345032,920.158569 678.694397,918.715088 
z"/>
<path fill="#E74417" opacity="1.000000" stroke="none" 
	d="
M1092.165527,1070.807007 
	C1092.241455,1070.376099 1092.308350,1069.954834 1092.474121,1068.940674 
	C1091.119507,1066.842407 1089.666138,1065.337158 1088.212891,1063.832031 
	C1088.212891,1063.832031 1088.070068,1063.451416 1087.997070,1062.883057 
	C1087.727417,1061.520996 1087.670654,1060.656982 1087.312622,1059.944580 
	C1084.374756,1054.100830 1081.474854,1048.233398 1078.321777,1042.506226 
	C1077.716309,1041.406128 1076.049927,1040.889893 1074.812744,1039.803955 
	C1074.707153,1039.097778 1074.661499,1038.692139 1074.640259,1037.882202 
	C1072.382080,1032.013428 1070.099487,1026.548828 1067.764893,1020.804810 
	C1067.646484,1020.155884 1067.579956,1019.786377 1067.593384,1018.985596 
	C1066.753540,1005.941956 1065.850220,993.328308 1064.879517,980.719910 
	C1064.807617,979.785767 1064.249146,978.889099 1063.916748,977.975037 
	C1063.958618,977.550354 1064.000488,977.125671 1064.359497,976.243286 
	C1064.748779,974.524902 1064.820923,973.264099 1064.893066,972.003357 
	C1064.936401,971.563721 1064.979858,971.124023 1065.321411,970.249023 
	C1065.694092,968.878052 1065.768555,967.942383 1065.843018,967.006775 
	C1065.894409,966.567444 1065.946045,966.128113 1066.351074,965.195435 
	C1067.735596,960.463623 1068.766724,956.225281 1069.797729,951.986877 
	C1070.515137,949.956482 1071.232544,947.926086 1072.352417,945.387939 
	C1073.557983,942.941040 1074.361084,941.001709 1075.164185,939.062439 
	C1075.842285,937.624878 1076.520386,936.187317 1077.187256,934.395569 
	C1077.176147,934.041321 1077.297729,933.671143 1077.759277,933.385620 
	C1078.550537,931.748962 1078.880371,930.397766 1079.295776,928.782593 
	C1078.350464,927.592346 1077.319702,926.666016 1076.047119,925.674194 
	C1075.646118,925.658142 1075.486694,925.707520 1075.327271,925.756958 
	C1075.327271,925.756958 1075.109375,925.932922 1075.335205,925.758911 
	C1075.561157,925.584839 1075.574707,925.289734 1075.669312,924.966431 
	C1073.953125,921.802795 1072.580933,918.524109 1070.255737,916.197998 
	C1060.007812,905.946045 1049.515747,895.936584 1039.010010,885.946655 
	C1038.063599,885.046631 1036.385986,884.915405 1034.785034,884.184021 
	C1033.843994,883.264832 1033.165771,882.588867 1032.525879,881.571533 
	C1031.292236,879.180176 1030.367676,876.773682 1028.690430,875.139954 
	C1019.773010,866.453308 1010.510254,858.118408 1001.670227,849.355896 
	C992.836731,840.600037 984.485901,831.356995 975.645203,822.608826 
	C973.270752,820.259216 969.882080,818.934631 966.958984,817.139526 
	C966.711975,816.897522 966.464966,816.655579 966.027588,815.871826 
	C962.135742,807.936646 956.019165,803.098145 948.702026,799.087280 
	C948.225525,798.561951 947.947021,798.269409 947.699829,797.628540 
	C945.842041,791.509338 941.996460,787.836792 935.943237,786.290466 
	C935.822144,786.178833 935.598877,785.936523 935.643677,785.642639 
	C935.094055,784.820984 934.499695,784.293274 933.724243,783.583069 
	C933.417053,783.284668 933.290894,783.168701 933.210815,782.737061 
	C927.823730,777.323486 922.390564,772.225525 916.957397,767.127563 
	C916.957397,767.127563 916.923340,767.059143 916.881958,766.681519 
	C916.348083,765.272156 916.090210,764.003601 915.325928,763.245850 
	C909.069458,757.042542 902.643982,751.008972 896.420898,744.773071 
	C891.738770,740.081238 886.761902,735.547791 882.861877,730.247925 
	C878.685852,724.572876 879.512451,720.842041 884.558899,715.728088 
	C893.410583,706.758179 902.328979,697.853577 911.272949,688.975586 
	C915.549622,684.730408 919.940002,684.670715 924.446655,688.669250 
	C927.924622,691.755005 931.241882,695.037292 934.876099,697.923157 
	C936.085022,698.883179 938.055847,698.883972 939.678345,699.323242 
	C943.201416,702.697998 946.724487,706.072754 950.111694,709.887329 
	C950.029297,711.243103 949.711304,712.513855 950.194336,713.019714 
	C954.783508,717.825195 959.415405,722.600769 964.272034,727.130920 
	C965.263428,728.055725 967.245178,727.918945 968.770386,728.271545 
	C969.919617,729.342224 971.068787,730.412964 972.136230,731.908508 
	C972.359802,733.490051 972.305237,734.988708 973.027649,735.749329 
	C978.695312,741.716370 984.422791,747.634827 990.360718,753.329590 
	C991.493103,754.415588 993.637878,754.445923 995.315613,754.963257 
	C996.024048,755.568054 996.732422,756.172791 997.409973,757.287720 
	C997.487061,761.317383 997.908203,761.669800 1000.597229,760.490723 
	C1002.267456,761.868530 1003.937683,763.246338 1005.661743,765.327759 
	C1007.392334,767.421997 1009.069153,768.812622 1010.746033,770.203308 
	C1011.001648,770.278992 1011.210876,770.422485 1011.203979,771.004639 
	C1011.628845,773.214050 1011.713196,775.526794 1012.905640,776.809143 
	C1018.198242,782.500916 1023.679199,788.035645 1029.354126,793.346924 
	C1032.612915,796.396790 1036.193848,799.193115 1039.960205,801.582642 
	C1043.337891,803.725647 1046.839233,803.419067 1049.956177,800.366943 
	C1057.914429,792.574219 1066.066406,784.977295 1073.933716,777.095215 
	C1075.280151,775.746155 1075.603394,773.375732 1076.381226,771.184692 
	C1076.392700,770.105774 1076.422363,769.319214 1076.556641,768.175415 
	C1076.095093,766.866333 1075.528931,765.914490 1074.858032,764.857422 
	C1074.753296,764.752136 1074.616699,764.488220 1074.616699,764.488220 
	C1072.807007,758.650391 1071.162598,752.755127 1069.157104,746.985352 
	C1062.687500,728.372192 1061.102417,709.496582 1064.872559,690.057373 
	C1070.236572,662.400635 1083.548218,639.762329 1105.224121,621.623108 
	C1115.927856,612.665833 1126.981323,604.772827 1140.333496,600.496338 
	C1144.905762,599.031860 1149.624023,598.028625 1154.230713,596.663086 
	C1155.765625,596.208008 1157.160645,595.280701 1158.803589,594.281799 
	C1158.987549,593.994324 1159.000000,594.000244 1159.408325,594.010132 
	C1161.846436,593.335449 1163.876221,592.650940 1165.906006,591.966431 
	C1175.276611,591.659546 1184.647095,591.352661 1194.655518,591.387939 
	C1196.491211,592.168030 1197.655396,592.794373 1198.891968,593.015015 
	C1213.759277,595.667847 1228.306641,599.198120 1241.371948,607.275696 
	C1243.398193,608.528503 1245.885254,609.035767 1248.159302,609.887756 
	C1248.635498,610.129639 1249.111816,610.371521 1249.921753,611.065063 
	C1251.188843,612.011719 1252.122070,612.506653 1253.055420,613.001587 
	C1260.497803,620.041199 1268.173096,626.853210 1275.326904,634.174622 
	C1285.586060,644.674133 1292.504517,657.211304 1297.338257,671.104126 
	C1301.741455,683.759216 1305.770996,696.550415 1305.078247,709.966614 
	C1304.310913,724.823364 1304.080933,739.869995 1297.593628,753.921204 
	C1288.084229,774.518005 1276.933716,793.616455 1257.672363,806.958435 
	C1243.536621,816.750122 1228.820312,825.044067 1212.055542,829.299255 
	C1209.332397,829.990479 1206.540527,830.411255 1203.273926,830.913696 
	C1202.456543,830.743225 1202.201050,830.822510 1202.000854,831.108154 
	C1200.951782,831.141663 1199.902588,831.175110 1198.120361,830.959839 
	C1188.653564,830.614319 1179.920166,830.506592 1171.186279,830.454773 
	C1170.765625,830.452271 1170.342163,830.942505 1169.919922,831.203308 
	C1169.489746,831.185242 1169.059692,831.167236 1168.164429,830.782349 
	C1159.068359,828.175598 1150.438477,825.930847 1141.798950,823.724487 
	C1141.578125,823.668030 1141.249390,824.034058 1140.970825,824.203003 
	C1140.152100,823.919189 1139.333252,823.635315 1138.158203,822.885742 
	C1136.187256,821.695618 1134.572754,820.971130 1132.958252,820.246582 
	C1131.355103,819.843018 1129.704834,819.570251 1128.157715,819.011536 
	C1123.357544,817.278015 1118.659424,817.773682 1115.151123,821.279053 
	C1106.973267,829.449951 1099.120850,837.954468 1091.335938,846.505371 
	C1089.460938,848.564941 1088.771606,851.285522 1092.404541,853.242432 
	C1093.583984,854.220093 1094.388428,855.154358 1095.465332,856.598877 
	C1096.185059,857.395386 1096.632446,857.681702 1097.079712,857.968018 
	C1097.079712,857.968079 1097.018188,857.990723 1097.034912,858.170288 
	C1097.398438,858.448364 1097.745361,858.546936 1098.092163,858.645447 
	C1099.188721,859.723755 1100.285278,860.802063 1101.579834,862.365540 
	C1101.949707,863.151611 1102.208008,863.287292 1102.552856,863.257751 
	C1102.957764,863.633972 1103.362671,864.010193 1103.885498,864.636597 
	C1106.241821,868.122009 1108.124634,871.698547 1110.814331,874.500671 
	C1113.766357,877.576111 1117.103027,880.921326 1120.939087,882.321045 
	C1124.446289,883.600647 1129.047729,883.208496 1132.811401,882.211304 
	C1144.616699,879.083130 1156.052979,873.858582 1168.012817,872.214478 
	C1180.157471,870.544922 1192.755005,872.144531 1205.153198,872.368347 
	C1207.135620,872.404114 1209.112793,872.732849 1211.670654,873.268127 
	C1218.501709,875.393311 1224.754639,877.176575 1231.007568,878.959839 
	C1233.994629,880.298279 1237.267212,881.223022 1239.916382,883.051147 
	C1248.599243,889.043152 1257.010010,895.427368 1265.611694,901.539490 
	C1274.017456,907.512512 1279.952637,915.689758 1285.596802,924.040649 
	C1288.819824,928.809326 1291.222900,934.132019 1293.923950,939.807495 
	C1295.239136,942.946533 1296.625732,945.483337 1298.012207,948.020081 
	C1298.049438,948.419861 1298.086670,948.819641 1298.153564,949.917542 
	C1298.632446,952.355408 1298.859131,954.194092 1299.579712,955.812988 
	C1300.836548,958.637390 1302.397583,961.326477 1303.831177,964.072266 
	C1303.902466,964.801514 1303.973755,965.530762 1303.858521,966.903320 
	C1304.383301,970.052124 1305.094604,972.557556 1305.806152,975.062988 
	C1305.898071,976.420227 1305.989990,977.777405 1305.846924,979.890503 
	C1305.765015,988.108948 1305.917847,995.571533 1306.070801,1003.034180 
	C1305.996338,1004.070618 1305.921997,1005.107117 1305.518066,1006.693970 
	C1304.812866,1009.509216 1304.437378,1011.774048 1304.061890,1014.038879 
	C1304.026245,1014.460388 1303.990601,1014.881958 1303.615234,1015.772766 
	C1298.214478,1028.199829 1293.153320,1040.157593 1288.092041,1052.115356 
	C1280.935669,1063.430298 1272.702148,1073.833862 1261.849487,1082.782227 
	C1260.668701,1083.257446 1259.972168,1083.319458 1259.406250,1083.624146 
	C1249.223633,1089.103882 1239.038696,1094.579834 1228.908081,1100.154907 
	C1227.532104,1100.912231 1226.446289,1102.197266 1225.226196,1103.237793 
	C1224.446655,1103.584106 1223.667236,1103.930420 1222.174561,1104.275391 
	C1217.652344,1105.634888 1213.843506,1106.995605 1210.034668,1108.356445 
	C1209.617432,1108.349609 1209.200195,1108.342773 1208.096436,1108.172974 
	C1204.204468,1106.949585 1201.146362,1106.514404 1198.605225,1110.003418 
	C1197.122559,1110.055176 1196.044312,1110.092529 1194.658569,1109.899048 
	C1191.899414,1110.149658 1189.447876,1110.631104 1186.996216,1111.112549 
	C1186.544434,1111.108643 1186.092773,1111.104614 1185.139160,1110.740723 
	C1180.080322,1110.263550 1175.523071,1110.146362 1170.965942,1110.029053 
	C1170.544189,1110.001587 1170.122314,1109.973999 1169.205811,1109.617432 
	C1167.849121,1108.856445 1167.027710,1108.291382 1166.118774,1108.013306 
	C1158.560791,1105.702148 1150.980835,1103.463013 1143.419922,1101.161743 
	C1139.491455,1099.966187 1135.587769,1098.688965 1131.672974,1097.448730 
	C1131.258423,1097.401367 1130.843750,1097.354004 1130.088501,1096.887451 
	C1126.452271,1094.726929 1123.156860,1092.985596 1119.861328,1091.244385 
	C1119.861328,1091.244385 1119.807007,1091.217773 1119.690918,1090.867676 
	C1116.075073,1088.319458 1112.575195,1086.121460 1108.972046,1083.602661 
	C1104.697021,1077.611938 1099.778809,1072.866943 1092.747925,1070.498779 
	C1092.519531,1070.540649 1092.143677,1070.813721 1092.143677,1070.813721 
	C1092.143677,1070.813721 1092.156494,1070.816772 1092.165527,1070.807007 
z"/>
<path fill="#E84317" opacity="1.000000" stroke="none" 
	d="
M766.996948,785.559814 
	C766.623047,785.962585 766.338196,786.044373 765.660400,786.233276 
	C765.267334,786.340271 765.479431,786.222778 765.479492,786.222778 
	C765.182495,786.599121 764.885498,786.975464 764.317810,787.584900 
	C761.044128,789.969299 757.867554,791.919922 755.085327,794.326355 
	C752.107788,796.901733 749.501770,799.906616 746.485352,802.929871 
	C740.379639,804.425110 736.999268,808.641724 734.083618,813.789062 
	C732.635559,815.419189 731.193665,816.675110 729.096680,818.025146 
	C727.626831,818.768372 726.812134,819.417358 725.997437,820.066284 
	C724.939636,820.067322 723.881897,820.068359 722.320618,819.726379 
	C718.198242,816.913757 714.579346,814.444153 710.960510,811.974548 
	C710.513000,811.950012 710.065491,811.925476 709.290771,811.979126 
	C708.963623,812.057251 708.986877,812.025452 708.990723,811.695435 
	C708.692627,810.764954 708.390686,810.164429 708.076172,809.213257 
	C706.641663,807.283386 705.219666,805.704041 703.797668,804.124756 
	C700.318481,800.604370 696.839233,797.083984 693.158142,792.924438 
	C691.289734,790.186218 689.623169,788.087280 687.956543,785.988342 
	C687.850037,785.020386 687.743469,784.052368 687.709839,782.351624 
	C687.482910,780.725098 687.183105,779.831421 686.883301,778.937683 
	C686.895813,778.514038 686.908447,778.090332 687.274536,777.230408 
	C688.420166,775.190979 689.212280,773.587830 690.004395,771.984741 
	C690.396423,771.643616 690.788391,771.302429 691.794983,770.855469 
	C693.863342,769.061829 695.317078,767.373962 696.770874,765.686157 
	C698.209839,764.132385 699.648743,762.578674 701.753418,760.890991 
	C704.250671,758.457397 706.082153,756.157715 707.913696,753.858093 
	C708.063843,753.601379 708.249084,753.373047 708.994263,752.997681 
	C711.033630,750.884888 712.548035,748.947571 714.099731,746.683655 
	C714.114685,745.922363 714.092346,745.487610 714.070068,745.052856 
	C714.070007,745.052856 714.050232,745.055847 714.058167,745.067688 
	C715.457397,744.638855 717.225037,744.596436 718.180054,743.694031 
	C725.522400,736.755920 732.670532,729.613037 739.953064,722.610779 
	C745.206116,717.559937 750.643677,712.700317 755.864136,707.616882 
	C759.398987,704.174805 762.635742,700.428711 766.117493,696.929749 
	C775.495422,687.505371 784.940002,678.147278 794.343140,668.747864 
	C796.923828,666.168274 799.484863,663.567261 801.994934,660.919189 
	C804.550720,658.222900 804.924500,654.987732 802.408691,652.396790 
	C793.735229,643.463989 784.873840,634.709045 775.930908,626.044373 
	C771.406555,621.660767 766.535217,621.756226 760.888672,624.714172 
	C747.571167,631.690552 733.121033,634.643494 718.160706,635.267090 
	C700.718384,635.994141 683.561829,635.065918 667.414429,627.336792 
	C653.162720,620.514893 638.652893,613.807739 627.715637,602.177307 
	C620.177063,594.161133 614.367676,584.525391 607.714111,575.667053 
	C605.300171,572.453186 602.679138,569.394836 599.761353,566.266602 
	C599.370178,566.267578 599.188843,566.020691 599.318115,565.530396 
	C599.267944,564.345886 599.088623,563.651611 598.909302,562.957397 
	C598.909302,562.957397 598.999023,563.002686 599.312134,562.885010 
	C599.539856,561.083069 599.709412,559.338562 599.327332,557.724609 
	C597.003784,547.910522 594.165649,538.199829 592.292542,528.304443 
	C591.161743,522.330933 590.591125,515.982422 591.302734,509.984375 
	C592.841370,497.016266 595.114197,484.215485 600.337585,471.942780 
	C608.541870,452.666138 618.830933,435.370514 637.033386,423.741272 
	C640.224548,421.702484 644.835205,420.071533 644.902405,414.888733 
	C644.902405,414.888733 644.925659,414.898499 645.311401,414.928833 
	C651.557251,412.766357 657.649048,411.041779 663.228577,408.281677 
	C674.333130,402.788452 685.661255,399.036011 698.141968,397.426666 
	C720.978149,394.481995 742.276001,399.540527 762.387207,408.933594 
	C778.806824,416.602539 792.950562,428.281952 804.468323,442.498016 
	C810.067627,449.409058 814.639709,457.166107 819.506714,464.650818 
	C821.881653,468.303192 823.866821,472.209045 826.028442,476.000122 
	C827.401306,480.964661 828.774170,485.929169 830.154175,491.640137 
	C830.756470,493.273438 831.351685,494.160339 831.946960,495.047241 
	C832.051819,495.750061 832.156677,496.452881 832.012085,497.835266 
	C830.892456,501.920898 829.792236,505.363190 833.270447,508.084076 
	C833.237427,508.509521 833.204468,508.934937 832.854736,509.760315 
	C832.718933,511.775787 832.899902,513.391296 833.080872,515.006836 
	C833.126709,515.725098 833.172546,516.443359 832.972290,517.851074 
	C830.434265,528.693542 828.113281,538.840454 825.930725,549.016968 
	C825.813965,549.561584 826.862244,550.356018 827.368225,551.034180 
	C824.628662,557.775085 821.889099,564.516052 818.953003,571.915405 
	C818.195801,573.767212 817.489563,574.915161 817.100952,576.162109 
	C815.780334,580.400146 818.569397,584.324219 822.931946,584.494812 
	C823.199890,584.638794 823.411255,584.841675 823.695862,585.680908 
	C824.813049,586.895325 825.800476,587.532349 826.787903,588.169373 
	C828.027649,589.225342 829.267395,590.281311 830.603394,591.571655 
	C831.250732,592.209534 831.801880,592.613159 832.353088,593.016724 
	C832.658630,593.473267 832.964172,593.929749 833.332520,595.117432 
	C837.913208,600.265198 842.431091,604.681885 847.086731,609.395142 
	C849.238220,610.048340 851.412354,611.006226 853.203308,610.528442 
	C854.221191,610.256836 854.612366,607.636353 855.296875,605.790161 
	C855.298828,605.135315 855.289673,604.763916 855.280518,604.392578 
	C856.106628,603.874023 856.932739,603.355469 858.426208,602.804688 
	C860.470459,601.923279 862.029358,601.270508 863.193176,600.191650 
	C868.583374,595.194641 873.877808,590.093872 879.180054,585.002625 
	C885.971008,578.481995 886.256653,576.508606 882.234863,567.722656 
	C881.210022,565.483582 880.781189,562.971741 879.756287,560.732727 
	C879.145508,559.398376 877.907410,558.351135 876.909912,556.869873 
	C876.826172,556.364197 876.783813,556.163513 876.914307,555.753967 
	C876.610657,555.015137 876.134216,554.485107 875.657776,553.955139 
	C874.443359,549.224670 872.866882,544.551270 872.109192,539.748718 
	C871.225830,534.150024 870.760437,528.444031 870.650879,522.774292 
	C870.492737,514.589050 870.523743,506.375275 871.059326,498.212036 
	C871.332703,494.045898 872.881470,489.963409 874.213623,485.272278 
	C875.019531,484.036102 875.591309,483.422943 875.892578,482.697418 
	C879.441284,474.151367 882.738770,465.492950 886.556274,457.069885 
	C888.498169,452.785339 891.356567,448.916199 893.800659,444.859253 
	C893.800598,444.859253 893.837341,444.847900 894.183228,444.771667 
	C895.328796,443.092987 896.128418,441.490540 896.928101,439.888062 
	C898.357300,438.318695 899.786560,436.749298 901.851440,434.968689 
	C903.285278,433.458801 904.083557,432.160126 904.881836,430.861450 
	C905.757263,430.016846 906.632629,429.172241 908.127075,428.147766 
	C910.126892,426.610260 911.507629,425.252655 912.901489,423.901306 
	C912.914612,423.907593 912.937195,423.889465 913.303589,423.895325 
	C916.089233,421.907593 918.508362,419.913940 920.943604,417.951233 
	C920.959595,417.982147 920.940735,417.923584 921.326965,417.941498 
	C925.589600,417.475800 928.742554,416.007812 930.204285,411.671387 
	C933.282959,409.901917 936.113953,408.362549 939.219360,407.013916 
	C941.270996,406.976166 943.126038,406.998291 944.812134,406.475464 
	C951.751221,404.323669 958.665161,402.080872 965.517029,399.668793 
	C966.540222,399.308624 967.182739,397.867249 968.372192,396.764465 
	C971.807861,396.371643 974.872803,396.140350 978.226929,396.121765 
	C980.346619,396.006622 982.177063,395.678772 984.471558,395.296753 
	C986.114929,394.890411 987.294128,394.538269 988.473389,394.186157 
	C990.039490,394.239471 991.605652,394.292786 993.675659,394.841400 
	C996.464050,395.506561 998.748657,395.676422 1001.033203,395.846283 
	C1006.698547,396.557007 1012.363831,397.267700 1018.577637,398.359314 
	C1022.739197,403.491486 1028.285889,402.851990 1033.259644,403.809692 
	C1039.010010,406.236542 1045.201050,407.959869 1050.422607,411.230927 
	C1062.797363,418.983429 1074.854248,427.345764 1083.786133,439.232452 
	C1091.956055,450.105103 1100.429810,460.831512 1103.629028,474.555206 
	C1104.180298,476.920013 1105.702271,479.058502 1106.711060,481.919678 
	C1106.657959,483.502319 1106.454712,484.528778 1106.712524,485.422302 
	C1112.965332,507.098511 1112.460205,528.592102 1105.247803,549.973816 
	C1104.729126,551.511475 1105.173462,553.374023 1105.170166,555.085571 
	C1104.476440,557.152832 1103.782715,559.220093 1102.842529,561.807739 
	C1102.377319,562.564209 1102.203247,562.829529 1102.073608,563.124084 
	C1097.984863,575.370178 1091.115112,586.297791 1082.039429,594.969116 
	C1069.552124,606.899963 1057.331909,619.755554 1040.565430,626.045837 
	C1035.506470,627.943787 1030.677246,630.470276 1024.600952,630.095520 
	C1020.127563,629.819641 1015.459717,632.696777 1010.226196,633.976990 
	C1008.366028,634.020020 1007.158325,634.255066 1005.950562,634.490051 
	C1005.594849,634.484009 1005.239136,634.477966 1004.236694,634.329163 
	C1002.373840,634.792908 1001.157654,635.399414 999.941406,636.005859 
	C998.917603,636.054749 997.893738,636.103638 996.142029,635.907715 
	C991.586914,635.819153 987.759644,635.975403 983.932434,636.131592 
	C982.258118,636.010620 980.583862,635.889648 978.354980,635.481934 
	C976.852783,635.207275 975.905029,635.219421 974.957336,635.231506 
	C964.003479,632.115417 952.775513,629.719055 942.173096,625.680481 
	C931.605591,621.655273 926.527954,621.903992 918.585693,630.043213 
	C904.087891,644.900513 889.629333,659.796936 875.030701,674.554688 
	C863.577576,686.132751 851.925293,697.513611 840.397156,709.017822 
	C838.995300,710.416748 837.815430,712.038147 835.953125,713.813049 
	C830.597961,715.859131 827.172058,718.904724 826.046875,724.091431 
	C821.149841,728.517029 816.166870,732.852173 811.383118,737.396973 
	C807.584351,741.005981 804.074524,744.917053 800.355469,748.612488 
	C794.368347,754.561646 788.211487,760.344116 782.349121,766.412231 
	C780.482178,768.344727 779.323120,770.961060 777.918091,773.636475 
	C777.995972,774.008362 777.997192,773.996826 777.736328,774.009033 
	C777.276062,774.300354 777.076721,774.579529 776.823853,775.152405 
	C776.790222,775.644165 776.810120,775.842163 776.829956,776.040161 
	C775.837097,776.927429 774.844360,777.814636 773.425781,779.034485 
	C772.819397,779.748962 772.638733,780.130798 772.458069,780.512695 
	C772.458069,780.512695 772.416443,780.456360 772.384766,780.468994 
	C770.597351,782.067322 768.841614,783.653076 766.996948,785.559814 
z"/>
</svg>