<svg width="26" height="29" viewBox="0 0 26 29" fill="none" xmlns="http://www.w3.org/2000/svg">
<path fill-rule="evenodd" clip-rule="evenodd" d="M7.695 8.05699C7.45678 8.13651 7.25538 8.29955 7.128 8.51599C7.037 8.67199 7.02 8.74599 7.02 8.99999C7.02 9.25599 7.036 9.32799 7.131 9.48899C7.192 9.59199 7.304 9.72499 7.381 9.78299C7.654 9.99099 7.7 9.99599 9.41 9.99799L11 9.99999V11.996L8.23 12.009L5.46 12.022L5.139 12.122C4.66493 12.2719 4.23378 12.5335 3.88176 12.8846C3.52973 13.2358 3.26713 13.6663 3.116 14.14C3.026 14.413 3.023 14.467 3.009 16.21L2.995 18H2.444C1.648 18 1.366 18.111 1.128 18.516C1.037 18.672 1.02 18.746 1.02 19C1.02 19.256 1.036 19.328 1.131 19.489C1.256 19.702 1.449 19.864 1.67 19.943C1.768 19.978 2.022 19.997 2.407 19.998L2.995 20L3.009 21.79C3.023 23.533 3.026 23.587 3.116 23.86C3.26799 24.3375 3.53326 24.7712 3.88919 25.124C4.24512 25.4768 4.68113 25.7382 5.16 25.886L5.46 25.98H18.54L18.84 25.886C19.3189 25.7382 19.7549 25.4768 20.1108 25.124C20.4667 24.7712 20.732 24.3375 20.884 23.86C20.974 23.587 20.977 23.533 20.991 21.79L21.005 20L21.593 19.998C21.978 19.997 22.232 19.978 22.33 19.943C22.551 19.864 22.744 19.702 22.869 19.489C22.964 19.328 22.98 19.256 22.98 19C22.98 18.746 22.963 18.672 22.872 18.516C22.634 18.111 22.352 18 21.556 18H21.005L20.991 16.21C20.977 14.467 20.974 14.413 20.884 14.14C20.7329 13.6663 20.4703 13.2358 20.1183 12.8846C19.7662 12.5335 19.3351 12.2719 18.861 12.122L18.54 12.022L15.772 12.009L13.003 11.996L12.992 10.348L12.98 8.69999L12.872 8.51599C12.7428 8.29467 12.535 8.13009 12.29 8.05499C12.033 7.97799 7.943 7.97899 7.695 8.05699ZM18.31 14.061C18.589 14.144 18.856 14.411 18.939 14.69C18.992 14.867 19 15.441 19 19.001C19 23.458 19.007 23.319 18.779 23.618C18.718 23.698 18.585 23.813 18.484 23.872L18.3 23.98H5.7L5.516 23.872C5.30261 23.7464 5.14041 23.5495 5.058 23.316C4.969 23.062 4.971 14.992 5.061 14.69C5.14 14.421 5.412 14.143 5.673 14.063C5.963 13.974 18.01 13.972 18.31 14.061ZM8.695 17.057C8.45678 17.1365 8.25538 17.2996 8.128 17.516L8.02 17.7V20.306L8.141 20.503C8.22928 20.6522 8.35493 20.7759 8.50555 20.8618C8.65618 20.9478 8.8266 20.9929 9 20.9929C9.17341 20.9929 9.34383 20.9478 9.49446 20.8618C9.64508 20.7759 9.77073 20.6522 9.859 20.503L9.98 20.306V17.7L9.872 17.516C9.75791 17.3164 9.57883 17.162 9.36464 17.0784C9.15045 16.9949 8.9141 16.9873 8.695 17.057ZM14.695 17.057C14.4568 17.1365 14.2554 17.2996 14.128 17.516L14.02 17.7V20.306L14.141 20.503C14.2293 20.6522 14.3549 20.7759 14.5056 20.8618C14.6562 20.9478 14.8266 20.9929 15 20.9929C15.1734 20.9929 15.3438 20.9478 15.4945 20.8618C15.6451 20.7759 15.7707 20.6522 15.859 20.503L15.98 20.306V17.7L15.872 17.516C15.7579 17.3164 15.5788 17.162 15.3646 17.0784C15.1505 16.9949 14.9141 16.9873 14.695 17.057Z" fill="black"/>
<g clip-path="url(#clip0_0_1)">
<path d="M19.396 4.52356C19.0122 4.52293 18.6406 4.67007 18.347 4.9389C18.0535 5.20774 17.8568 5.58092 17.7919 5.99235C17.7271 6.40378 17.7981 6.82691 17.9926 7.1868C18.187 7.54669 18.4923 7.82012 18.8543 7.95864C18.8517 7.99197 18.8517 8.02548 18.8543 8.05881V12.2799C18.8543 12.4362 18.7944 13.8895 18.896 14C18.7523 14 18.9975 14.1105 18.896 14C18.7944 14.1105 19.0396 14 18.896 14C18.9975 13.8895 19.8463 16.8906 19.8463 16.7343L19.9376 8.05881C19.9402 8.02548 19.9402 7.99197 19.9376 7.95864C20.2996 7.82012 20.6049 7.54669 20.7994 7.1868C20.9938 6.82691 21.0649 6.40378 21 5.99235C20.9351 5.58092 20.7385 5.20774 20.4449 4.9389C20.1513 4.67007 19.7797 4.52293 19.396 4.52356ZM19.396 6.88039C19.2888 6.88039 19.1841 6.84583 19.095 6.78109C19.006 6.71635 18.9365 6.62433 18.8955 6.51666C18.8545 6.409 18.8438 6.29053 18.8647 6.17623C18.8856 6.06194 18.9372 5.95695 19.0129 5.87455C19.0887 5.79215 19.1852 5.73603 19.2903 5.71329C19.3954 5.69056 19.5043 5.70223 19.6033 5.74682C19.7022 5.79142 19.7868 5.86694 19.8463 5.96383C19.9059 6.06073 19.9376 6.17465 19.9376 6.29118C19.9376 6.44745 19.8806 6.59732 19.779 6.70781C19.6774 6.81831 19.5396 6.88039 19.396 6.88039ZM14.7918 6.29118C14.8066 5.69463 14.9425 5.10902 15.1897 4.57628C15.4369 4.04354 15.7894 3.57685 16.2218 3.20962C16.3324 3.10961 16.402 2.9659 16.4152 2.81009C16.4284 2.65429 16.3842 2.49916 16.2922 2.37884C16.2467 2.31926 16.1908 2.27002 16.1278 2.23392C16.0648 2.19783 15.9958 2.17559 15.9249 2.16848C15.7817 2.15411 15.6391 2.20223 15.5285 2.30224C14.9729 2.77945 14.5215 3.38472 14.2068 4.07447C13.8921 4.76422 13.7219 5.52129 13.7085 6.29118C13.7219 7.06107 13.8921 7.81814 14.2068 8.50789C14.5215 9.19764 14.9729 9.80291 15.5285 10.2801C15.5832 10.3296 15.6464 10.3669 15.7145 10.3899C15.7825 10.4128 15.854 10.421 15.9249 10.4139C15.9958 10.4068 16.0648 10.3845 16.1278 10.3484C16.1908 10.3123 16.2467 10.2631 16.2922 10.2035C16.3377 10.1439 16.372 10.0752 16.3931 10.0012C16.4142 9.92721 16.4217 9.84941 16.4152 9.77227C16.4086 9.69512 16.3882 9.62013 16.355 9.55158C16.3218 9.48303 16.2766 9.42226 16.2218 9.37274C15.7894 9.00552 15.4369 8.53883 15.1897 8.00608C14.9425 7.47334 14.8066 6.88773 14.7918 6.29118Z" fill="black"/>
<path d="M22.0133 3.38C21.9025 3.30636 21.7685 3.27609 21.6368 3.29494C21.5051 3.3138 21.3849 3.38046 21.2992 3.48223C21.2135 3.584 21.1683 3.71375 21.1721 3.84675C21.1759 3.97974 21.2286 4.10667 21.32 4.20333C21.5877 4.41285 21.806 4.67866 21.9595 4.98195C22.113 5.28523 22.198 5.61857 22.2083 5.95833C22.198 6.2981 22.113 6.63143 21.9595 6.93472C21.806 7.238 21.5877 7.50382 21.32 7.71333C21.2362 7.785 21.1762 7.88054 21.1482 7.98718C21.1201 8.09383 21.1253 8.2065 21.163 8.31014C21.2006 8.41377 21.2691 8.50344 21.3591 8.56715C21.4491 8.63086 21.5564 8.66558 21.6667 8.66667C21.7939 8.6654 21.9166 8.61937 22.0133 8.53667C22.4041 8.22848 22.7216 7.83728 22.9427 7.39137C23.1638 6.94545 23.283 6.45597 23.2917 5.95833C23.283 5.4607 23.1638 4.97122 22.9427 4.5253C22.7216 4.07938 22.4041 3.68818 22.0133 3.38ZM17.745 3.445C17.6525 3.33662 17.5211 3.26903 17.3792 3.25686C17.2372 3.2447 17.0962 3.28894 16.9867 3.38C16.5958 3.68818 16.2784 4.07938 16.0573 4.5253C15.8362 4.97122 15.717 5.4607 15.7083 5.95833C15.717 6.45597 15.8362 6.94545 16.0573 7.39137C16.2784 7.83728 16.5958 8.22848 16.9867 8.53667C17.0962 8.62773 17.2372 8.67197 17.3792 8.6598C17.5211 8.64764 17.6525 8.58004 17.745 8.47167C17.8361 8.36211 17.8803 8.2211 17.8681 8.07916C17.856 7.93722 17.7884 7.80579 17.68 7.71333C17.4123 7.50382 17.194 7.238 17.0405 6.93472C16.887 6.63143 16.802 6.2981 16.7917 5.95833C16.802 5.61857 16.887 5.28523 17.0405 4.98195C17.194 4.67866 17.4123 4.41285 17.68 4.20333C17.7884 4.11088 17.856 3.97944 17.8681 3.83751C17.8803 3.69557 17.8361 3.55455 17.745 3.445Z" fill="black"/>
<path d="M23.3675 2.29125C23.3127 2.24572 23.2495 2.21143 23.1815 2.19033C23.1135 2.16923 23.042 2.16174 22.971 2.16828C22.9001 2.17481 22.8312 2.19526 22.7682 2.22844C22.7051 2.26162 22.6493 2.30689 22.6037 2.36166C22.5582 2.41643 22.5239 2.47964 22.5028 2.54766C22.4817 2.61569 22.4742 2.6872 22.4808 2.75812C22.4873 2.82904 22.5078 2.89798 22.5409 2.961C22.5741 3.02402 22.6194 3.07989 22.6742 3.12541C23.1066 3.46301 23.4591 3.89204 23.7063 4.3818C23.9535 4.87155 24.0894 5.40991 24.1042 5.95833C24.0894 6.50674 23.9535 7.0451 23.7063 7.53486C23.4591 8.02462 23.1066 8.45365 22.6742 8.79125C22.5635 8.88319 22.494 9.01531 22.4808 9.15854C22.4676 9.30177 22.5118 9.44438 22.6037 9.555C22.6957 9.66561 22.8278 9.73518 22.971 9.74838C23.1143 9.76159 23.2569 9.71735 23.3675 9.62541C23.9231 9.18671 24.3745 8.63028 24.6892 7.99618C25.0039 7.36208 25.1741 6.6661 25.1875 5.95833C25.1741 5.25056 25.0039 4.55457 24.6892 3.92048C24.3745 3.28638 23.9231 2.72995 23.3675 2.29125Z" fill="black"/>
</g>
<defs>
<clipPath id="clip0_0_1">
<rect width="13" height="13" fill="white" transform="translate(13)"/>
</clipPath>
</defs>
</svg>
