<svg xmlns="http://www.w3.org/2000/svg" viewBox="0 0 149.39 140.72" style="margin: 0px auto;">
  <!-- Bottom stand: post + circular base + horizontal connector line (preserved from original) -->
  <path d="M78.2,110.62v-17.21c0-1.93-1.57-3.5-3.5-3.5s-3.5,1.57-3.5,3.5v17.21c0,1.93,1.57,3.5,3.5,3.5s3.5-1.57,3.5-3.5ZM85.64,119.55c0-6.04-4.91-10.94-10.95-10.94s-10.94,4.91-10.94,10.94,4.91,10.95,10.94,10.95,10.95-4.91,10.95-10.95ZM78.64,119.55c0,2.18-1.77,3.95-3.95,3.95s-3.94-1.77-3.94-3.95,1.77-3.94,3.94-3.94,3.95,1.77,3.95,3.94ZM127.6,119.55c0-1.93-1.57-3.5-3.5-3.5h-41.95c-1.93,0-3.5,1.57-3.5,3.5s1.57,3.5,3.5,3.5h41.95c1.93,0,3.5-1.57,3.5-3.5ZM67.48,119.55c0-1.93-1.57-3.5-3.5-3.5h-41.95c-1.93,0-3.5,1.57-3.5,3.5s1.57,3.5,3.5,3.5h41.95c1.93,0,3.5-1.57,3.5-3.5Z" fill="#8f8484" style="fill:#000000;stroke:none;color:#000000;stroke-width:1px;stroke-linecap:butt;stroke-linejoin:miter;opacity:1;font-family:&quot;Anthropic Sans&quot;, -apple-system, &quot;system-ui&quot;, &quot;Segoe UI&quot;, sans-serif;font-size:16px;font-weight:400;text-anchor:start;dominant-baseline:auto"/>

  <!-- Server unit 1 (top) -->
  <path d="M22,8c-1.93,0-3.5,1.57-3.5,3.5v15c0,1.93,1.57,3.5,3.5,3.5h105.39c1.93,0,3.5-1.57,3.5-3.5v-15c0-1.93-1.57-3.5-3.5-3.5H22ZM26,15h60v8H26v-8ZM107,19c0,1.66,1.34,3,3,3s3-1.34,3-3-1.34-3-3-3-3,1.34-3,3ZM117,19c0,1.66,1.34,3,3,3s3-1.34,3-3-1.34-3-3-3-3,1.34-3,3Z" fill="#8f8484" style="fill:#000000;stroke:none;color:#000000;stroke-width:1px;stroke-linecap:butt;stroke-linejoin:miter;opacity:1;font-family:&quot;Anthropic Sans&quot;, -apple-system, &quot;system-ui&quot;, &quot;Segoe UI&quot;, sans-serif;font-size:16px;font-weight:400;text-anchor:start;dominant-baseline:auto"/>

  <!-- Server unit 2 (middle) -->
  <path d="M22,35c-1.93,0-3.5,1.57-3.5,3.5v15c0,1.93,1.57,3.5,3.5,3.5h105.39c1.93,0,3.5-1.57,3.5-3.5v-15c0-1.93-1.57-3.5-3.5-3.5H22ZM26,42h60v8H26v-8ZM107,46c0,1.66,1.34,3,3,3s3-1.34,3-3-1.34-3-3-3-3,1.34-3,3ZM117,46c0,1.66,1.34,3,3,3s3-1.34,3-3-1.34-3-3-3-3,1.34-3,3Z" fill="#8f8484" style="fill:#000000;stroke:none;color:#000000;stroke-width:1px;stroke-linecap:butt;stroke-linejoin:miter;opacity:1;font-family:&quot;Anthropic Sans&quot;, -apple-system, &quot;system-ui&quot;, &quot;Segoe UI&quot;, sans-serif;font-size:16px;font-weight:400;text-anchor:start;dominant-baseline:auto"/>

  <!-- Server unit 3 (bottom) -->
  <path d="M22,62c-1.93,0-3.5,1.57-3.5,3.5v15c0,1.93,1.57,3.5,3.5,3.5h105.39c1.93,0,3.5-1.57,3.5-3.5v-15c0-1.93-1.57-3.5-3.5-3.5H22ZM26,69h60v8H26v-8ZM107,73c0,1.66,1.34,3,3,3s3-1.34,3-3-1.34-3-3-3-3,1.34-3,3ZM117,73c0,1.66,1.34,3,3,3s3-1.34,3-3-1.34-3-3-3-3,1.34-3,3Z" fill="#8f8484" style="fill:#000000;stroke:none;color:#000000;stroke-width:1px;stroke-linecap:butt;stroke-linejoin:miter;opacity:1;font-family:&quot;Anthropic Sans&quot;, -apple-system, &quot;system-ui&quot;, &quot;Segoe UI&quot;, sans-serif;font-size:16px;font-weight:400;text-anchor:start;dominant-baseline:auto"/>
</svg>