<!--
 ~ Copyright (c) 2026, WSO2 LLC. (https://www.wso2.com) All Rights Reserved.
 ~
 ~ WSO2 LLC. licenses this file to you under the Apache License,
 ~ Version 2.0 (the "License"); you may not use this file except
 ~ in compliance with the License.
 ~ You may obtain a copy of the License at
 ~
 ~     http://www.apache.org/licenses/LICENSE-2.0
 ~
 ~ Unless required by applicable law or agreed to in writing,
 ~ software distributed under the License is distributed on an
 ~ "AS IS" BASIS, WITHOUT WARRANTIES OR CONDITIONS OF ANY
 ~ KIND, either express or implied. See the License for the
 ~ specific language governing permissions and limitations
 ~ under the License.
-->
<svg width="24" height="24" viewBox="0 0 24 24" fill="none" xmlns="http://www.w3.org/2000/svg">
<path d="M11.5 19h1v-1.85l3.5-3.5V9H8v4.65l3.5 3.5zm-2 1v-2l-2.925-2.925q-.275-.275-.425-.637T6 13.675V9q0-.825.588-1.412T8 7h1L8 8V4q0-.425.288-.712T9 3t.713.288T10 4v3h4V4q0-.425.288-.712T15 3t.713.288T16 4v4l-1-1h1q.825 0 1.413.588T18 9v4.675q0 .4-.15.763t-.425.637L14.5 18v2q0 .425-.288.713T13.5 21h-3q-.425 0-.712-.288T9.5 20m2.5-6" fill="black"/>
</svg>
