<?xml version="1.0" encoding="UTF-8" standalone="no"?>
<svg
   width="300"
   viewBox="0 0 225 225"
   height="300"
   preserveAspectRatio="xMidYMid"
   version="1.2"
   xmlns="http://www.w3.org/2000/svg"
   xmlns:svg="http://www.w3.org/2000/svg">
  <g
     transform="translate(-1.2590248,-55.135325)">
    <path
       style="fill:#ffffff"
       d="M 41.429688,226.03125 C 15.207031,193.8125 13.636719,147.73828 37.601562,113.99609 62.730469,78.621094 109.23047,65.492188 148.61328,81.578125 l -11.42187,22.093755 c -26.8125,-10.074224 -57.070316,-2.39454 -75.906254,20.05468 -13.53125,16.12891 -18.558594,38.48438 -13.449218,59.79688 l 16.023437,-3.83594 c -3.902344,-16.26563 -0.148437,-33.22656 10.042969,-45.37109 15.640625,-18.64063 41.656246,-23.84375 63.261716,-12.66016 l 7.32031,3.78906 26.48829,-51.253904 -7.3086,-3.785156 C 115.60547,45.523438 55.636719,60.164062 24.167969,104.45703 5.546875,130.6875 0.00390625,163.21875 7.253906,193.22266 c 3.742188,15.48437 10.886719,30.28906 21.394532,43.20703 3.113281,3.82422 6.5625,7.35547 10.15625,10.73047 l 7.875,-15.2461 c -1.824219,-1.89062 -3.59375,-3.83984 -5.25,-5.88281 z M 202.75,230.61328 c 27.94922,-39.29687 26.45703,-93.1875 -3.63672,-131.046874 -3.38672,-4.25 -7.14844,-8.171875 -11.08594,-11.855468 l -7.875,15.238282 c 2.1211,2.19141 4.16016,4.47656 6.06641,6.87109 25.55078,32.15235 26.83594,77.89063 3.10547,111.24219 -25.13281,35.33203 -71.61719,48.43359 -111.878908,34.12891 l 11.417969,-22.09375 c 27.675779,8.29296 57.894529,0.65234 76.738279,-21.72266 13.94922,-16.55469 18.79297,-39.44922 13.16406,-61.3125 L 162.77344,154 c 4.40625,16.62891 0.73047,34.29297 -9.77344,46.76562 -15.64844,18.57813 -41.62891,23.75391 -63.203125,12.58594 l -7.316406,-3.78906 -26.484375,51.26172 7.304687,3.77734 c 48.031249,24.86328 107.972659,10.25 139.449219,-33.98828"/>
  </g>
</svg>
